<?xml version="1.0" encoding="utf-8"?>
<!-- Generator: Adobe Illustrator 27.9.0, SVG Export Plug-In . SVG Version: 6.00 Build 0)  -->
<svg version="1.1" id="Layer_1" xmlns="http://www.w3.org/2000/svg" xmlns:xlink="http://www.w3.org/1999/xlink" x="0px" y="0px"
	 viewBox="0 0 400 400" style="enable-background:new 0 0 400 400;" xml:space="preserve">
<style type="text/css">
	.st0{fill:#FFFFFF;}
</style>
<path d="M392,58.15c-1.77,2.63-3.18,5.61-5.37,7.83c-16.21,16.42-32.65,32.62-48.85,49.05c-3.25,3.3-6.96,4.64-11.32,4.67
	c-9.85,0.06-19.71,0.02-29.56,0.02c-5.84,0-5.84,0-9.91,4.78c34.89,40.9,48.51,87.82,37.37,140.76
	c-8.58,40.77-30.88,73.04-64.81,97.2c-64.83,46.16-156.39,35.61-209.56-24.1C-5.1,276.51-5.09,186.49,50.12,124.63
	c55.88-62.61,157.37-73.36,225.34-11.67c3.28-2.15,5.09-4.76,4.93-9.12c-0.35-9.59-0.04-19.21-0.14-28.81
	c-0.05-5.36,1.48-9.7,5.5-13.63c16.23-15.87,32.13-32.08,48.29-48.03c2.21-2.19,5.19-3.6,7.81-5.37c2,0,3.99,0,5.99,0
	c3.24,2.64,4.45,6.05,4.35,10.19c-0.16,6.6-0.04,13.22-0.04,19.82c0,3.19,0,6.38,0,9.84c10.13,0,19.72,0.1,29.3-0.05
	c4.25-0.07,7.85,0.94,10.56,4.35C392,54.16,392,56.16,392,58.15z M263.8,124.17c-47.24-44.71-133.72-52.6-192.3,1.09
	C11,180.73,8.81,274.13,66.09,332.78c55.36,56.69,149.98,56.42,205.07-0.32c56.86-58.56,50.74-147.19,4.61-196.39
	c-9.27,9.36-18.54,18.73-27.84,28.11c39.11,45.69,29.2,113.89-14.46,148.35c-42.15,33.28-102.19,29.69-139.23-8.32
	c-37.06-38.02-39.52-98.1-5.93-138.84c35.7-43.29,102.44-51.46,147.53-13.2C245.17,142.84,254.49,133.5,263.8,124.17z
	 M223.92,164.03c-34.86-30.28-89.59-26.08-120.8,9.28c-32.5,36.83-29.46,90.69,6.97,123.46c35.82,32.23,90.23,29.59,122.72-5.95
	c33.61-36.76,27.9-87.04,3.08-114.5c-9.21,9.21-18.43,18.44-27.7,27.72c14.03,21.12,9.37,49.79-8.97,64.68
	c-18.14,14.73-45.65,14.25-63.01-1.26c-17.43-15.57-20.87-42.97-7.78-62.78c6.29-9.52,14.99-16.02,25.97-19.05
	c14.93-4.12,29.09-1.99,41.71,6.25C205.49,182.49,214.64,173.33,223.92,164.03z M184.49,204.36c-12.54-8.45-30.98-5.07-40.79,7.08
	c-10.57,13.09-9.3,31.85,2.94,43.36c12.1,11.38,30.75,11.55,43.18,0.39c11.29-10.13,14.07-28.49,5.84-39.43
	c-7.34,7.27-14.68,14.51-21.98,21.8c-2.05,2.05-8,2.74-10.74,0.94c-2.98-1.96-3.83-5-2.84-8.2c0.56-1.79,1.97-3.44,3.33-4.83
	C170.32,218.44,177.32,211.52,184.49,204.36z M364.37,64.18c-1.77-0.1-2.95-0.21-4.13-0.22c-4.98-0.02-9.97,0.05-14.95-0.03
	c-6.38-0.1-9.12-2.79-9.23-9.12c-0.09-5.35-0.01-10.71-0.04-16.07c-0.01-0.88-0.22-1.76-0.41-3.15
	c-13.04,13.05-25.64,25.64-38.2,38.27c-0.56,0.57-1.16,1.44-1.17,2.18c-0.08,9.17-0.05,18.34-0.05,27.77
	c8.89,0,17.34,0.12,25.79-0.1c1.73-0.05,3.84-0.96,5.08-2.17c11.65-11.42,23.15-23,34.69-34.54
	C362.52,66.24,363.22,65.43,364.37,64.18z"/>
<path class="st0" d="M392,52.16c-2.72-3.41-6.32-4.42-10.56-4.35c-9.58,0.15-19.16,0.05-29.3,0.05c0-3.47,0-6.65,0-9.84
	c0-6.61-0.12-13.22,0.04-19.82c0.1-4.15-1.11-7.56-4.35-10.19c14.72,0,29.44,0,44.16,0C392,22.72,392,37.44,392,52.16z"/>
</svg>
