<?xml version="1.0" encoding="utf-8"?>
<!-- Generator: Adobe Illustrator 27.9.0, SVG Export Plug-In . SVG Version: 6.00 Build 0)  -->
<svg version="1.1" id="Layer_1" xmlns="http://www.w3.org/2000/svg" xmlns:xlink="http://www.w3.org/1999/xlink" x="0px" y="0px"
	 viewBox="0 0 400 400" style="enable-background:new 0 0 400 400;" xml:space="preserve">
<style type="text/css">
	.st0{fill:#FFFFFF;}
</style>
<g>
	<path d="M207.03,0c7.52,2.34,15.55,3.69,22.47,7.21c22.92,11.67,35.45,30.72,36.92,56.53c1.19,20.77-1.23,41.04-10.12,60.17
		c-4.77,10.26-10.95,19.51-19.32,27.17c-1.77,1.62-2.23,3-1.15,5.02c0.12,0.22,0.16,0.5,0.2,0.75c1.9,11.69,9.54,19.57,17.92,26.94
		c1.34,1.18,3.02,2.02,4.63,2.84c19,9.68,38.13,19.1,56.94,29.12c5.42,2.89,10.13,7.25,14.81,11.35c3.67,3.22,3.76,8.15,0.91,11.55
		c-2.87,3.43-7.99,4.25-11.49,0.9c-10.29-9.86-23.25-15.13-35.6-21.46c-9.01-4.62-18.11-9.06-27.73-13.85
		c-1.12,6.45-2.19,12.51-3.22,18.57c-1.07,6.28-2.07,12.57-3.15,18.85c-1.23,7.16-5.92,9.9-12.78,7.22
		c-11.14-4.34-22.25-8.76-33.28-13.37c-2.9-1.21-5.3-1.1-8.14,0.08c-10.92,4.53-21.93,8.87-32.93,13.21
		c-7.05,2.78-11.75,0.14-13.01-7.27c-1.85-10.9-3.64-21.8-5.47-32.7c-0.23-1.38-0.58-2.74-0.95-4.41c-1.64,0.75-3.06,1.35-4.43,2.04
		c-13.33,6.77-26.83,13.23-39.91,20.44c-9.93,5.47-17.09,13.81-21.28,24.58c3.16,1.94,6.33,3.47,9.01,5.61
		c14.13,11.28,17.2,30.74,7.26,45.05c-10.11,14.56-29.07,18.88-44.6,9.55c-12.04-7.24-17.45-18.48-15.76-32.41
		c1.61-13.24,9.12-22.47,21.72-27.05c3.41-1.24,5.52-2.74,6.81-6.34c6.28-17.52,19.06-29.1,35.27-37.3
		c12.99-6.57,25.98-13.16,39.09-19.49c5.7-2.76,10.84-6.06,15.05-10.84c2.49-2.83,5.27-5.4,7.98-8.03
		c4.44-4.31,8.17-4.61,13.17-0.92c8.06,5.95,16.1,11.94,24.03,18.06c2.16,1.67,3.65,2.05,6,0.15c5.77-4.65,11.73-9.08,17.8-13.35
		c2.37-1.66,2.86-3.26,1.68-5.78c-0.82-1.75-1.32-3.65-1.94-5.43c-5.39,1.17-10.61,2.88-15.94,3.34
		c-19.87,1.72-35.29-7.07-47.73-21.69c-13.31-15.64-20.14-34.17-22.38-54.37c-1.52-13.71-2.23-27.48,1.36-41.08
		c6.55-24.86,28.44-44.53,53.87-48.29c1.13-0.17,2.22-0.55,3.33-0.84C197.66,0,202.34,0,207.03,0z M149.8,74.4
		c0.35,4.81,0.49,9.23,1.03,13.6c2.22,17.91,7.87,34.43,20.24,48.07c13.43,14.8,31.99,18.06,47.88,8.27
		c8.99-5.54,15.3-13.58,20.18-22.82c9.15-17.32,11.56-35.99,10.82-55.22c-0.82-21.38-10.91-37.18-30.55-45.5
		c-19.66-8.33-38.04-4.58-53.88,9.82c-7.55,6.87-12.31,15.53-14.38,26.2c6.99-2.05,12.04-5.87,16.38-10.85
		c4.82-5.53,10.15-5.62,14.85-0.1c7.33,8.6,16.62,12.61,27.82,12.52c4.94-0.04,9.9-0.12,14.83,0.09c4.79,0.21,7.93,3.37,8.18,7.79
		c0.24,4.28-2.81,8.44-7.39,8.47c-9.46,0.05-18.99-0.06-28.37-1.14c-8.55-0.98-15.77-5.68-22.5-11.35
		C167.75,68.59,159.56,72.6,149.8,74.4z M164.84,230.08c10.31-4.13,19.97-7.92,29.56-11.89c3.85-1.59,7.45-1.58,11.28,0.04
		c6.94,2.93,13.97,5.63,20.97,8.42c2.71,1.08,5.44,2.13,8.54,3.35c1.91-11.65,3.77-22.78,5.5-33.94c0.13-0.86-0.33-2.05-0.91-2.75
		c-2.17-2.58-4.51-5.02-6.85-7.58c-8.96,6.72-17.37,13.03-25.79,19.33c-5.71,4.28-8.56,4.27-14.3-0.03
		c-8.41-6.29-16.81-12.59-25.8-19.33c-2.28,2.53-4.53,4.88-6.59,7.39c-0.66,0.8-1.26,2.1-1.11,3.05
		C161.05,207.3,162.92,218.43,164.84,230.08z M66.71,299.98c9.06-0.03,16.64-7.63,16.61-16.67c-0.03-9.18-7.37-16.38-16.71-16.36
		c-9.32,0.02-16.62,7.26-16.59,16.46C50.06,292.48,57.64,300,66.71,299.98z"/>
	<path d="M139.84,400c-4.8-1.99-6.79-5.57-6.49-10.75c0.44-7.64-0.22-15.45,1.12-22.91c3.32-18.51,19.65-32.35,38.43-32.76
		c18.19-0.4,36.4-0.43,54.59,0.02c20.79,0.52,38.1,18.1,38.97,38.88c0.23,5.58-0.07,11.19,0.2,16.76c0.25,5.18-1.7,8.76-6.51,10.75
		C220.05,400,179.95,400,139.84,400z M250,383.2c0-1.94,0-3.49,0-5.04C250,360,239.95,350,221.69,350c-14.83,0-29.66-0.02-44.5,0
		c-18.76,0.03-30.4,14.44-26.67,33.2C183.48,383.2,216.47,383.2,250,383.2z"/>
	<path d="M289.84,400c-2-1.91-4.81-3.46-5.84-5.79c-2.3-5.22,1.9-10.61,8.12-10.75c8.59-0.19,17.18-0.07,25.77-0.07
		c20.18,0,40.35,0,60.53,0c1.42,0,2.84,0,4.2,0c3.67-17.46-6.18-31.87-20.5-32.73c-19.05-1.15-38.24-0.71-57.34-0.02
		c-4.58,0.17-9.22,3.69-13.45,6.3c-3.3,2.04-6.35,3.65-10.1,1.87c-5.42-2.57-6.33-9.2-1.76-13.71c6.91-6.83,15.32-11.18,25-11.39
		c19.25-0.43,38.53-0.57,57.78,0.01c17.72,0.53,33.45,15.26,36.98,33.3c0.17,0.86,0.52,1.69,0.78,2.53c0,8.07,0,16.15,0,24.22
		c-2.08,2.08-4.17,4.17-6.25,6.25C359.11,400,324.48,400,289.84,400z"/>
	<path d="M0,369.53c1.91-8.31,4.87-16.11,10.84-22.48c7.83-8.38,17.37-13.33,28.87-13.49c18.22-0.25,36.45-0.23,54.66,0.04
		c9.73,0.14,18.16,4.15,25.34,10.67c4.32,3.93,4.94,8.59,1.82,12.4c-3.07,3.76-8.08,4.14-12.42,0.34c-6.06-5.3-13-7.15-20.87-7.06
		c-14.71,0.17-29.42,0.03-44.13,0.05c-18.88,0.02-30.4,14.01-26.97,33.38c1.41,0,2.92,0,4.44,0c27.73,0,55.45,0,83.18,0.01
		c1.56,0,3.13,0,4.67,0.2c3.62,0.46,5.97,2.59,6.82,6.06c0.88,3.61-0.22,6.69-3.42,8.83c-0.85,0.57-1.78,1.02-2.67,1.52
		c-34.64,0-69.27,0-103.91,0c-2.08-2.08-4.17-4.17-6.25-6.25C0,385.68,0,377.6,0,369.53z"/>
	<path class="st0" d="M0,393.75c2.08,2.08,4.17,4.17,6.25,6.25c-2.08,0-4.17,0-6.25,0C0,397.92,0,395.83,0,393.75z"/>
	<path class="st0" d="M393.75,400c2.08-2.08,4.17-4.17,6.25-6.25c0,2.08,0,4.17,0,6.25C397.92,400,395.83,400,393.75,400z"/>
	<path d="M366.55,283.43c-0.08,18.33-15.06,33.22-33.33,33.13c-18.27-0.09-33.3-15.18-33.2-33.34c0.1-18.2,15.3-33.3,33.41-33.19
		C351.69,250.13,366.63,265.2,366.55,283.43z M349.98,283.24c-0.06-9.06-7.72-16.64-16.74-16.56c-9.09,0.08-16.63,7.73-16.55,16.76
		c0.09,9.09,7.68,16.59,16.75,16.54C342.52,299.92,350.03,292.32,349.98,283.24z"/>
	<path d="M199.93,316.55c-18.26-0.05-33.37-15.18-33.25-33.3c0.11-18.21,15.27-33.29,33.39-33.22
		c18.19,0.07,33.35,15.29,33.25,33.36C233.21,301.68,218.18,316.6,199.93,316.55z M216.56,283.4c0.03-9.2-7.33-16.65-16.49-16.71
		c-9.11-0.05-16.59,7.41-16.62,16.58c-0.03,9.16,7.38,16.66,16.5,16.7C209.06,300.01,216.53,292.55,216.56,283.4z"/>
	<path class="st0" d="M250,383.2c-33.53,0-66.52,0-99.48,0c-3.73-18.76,7.91-33.16,26.67-33.2c14.83-0.03,29.66-0.01,44.5,0
		c18.26,0,28.3,10,28.31,28.16C250,379.71,250,381.26,250,383.2z"/>
</g>
</svg>
