<?xml version="1.0" encoding="utf-8"?>
<!-- Generator: Adobe Illustrator 27.9.0, SVG Export Plug-In . SVG Version: 6.00 Build 0)  -->
<svg version="1.1" id="Layer_1" xmlns="http://www.w3.org/2000/svg" xmlns:xlink="http://www.w3.org/1999/xlink" x="0px" y="0px"
	 viewBox="0 0 400 400" style="enable-background:new 0 0 400 400;" xml:space="preserve">
<style type="text/css">
	.st0{fill:#FFFFFF;}
</style>
<path d="M117.29,8c1.3,2.42,2.96,4.71,3.82,7.28c1.13,3.38,1.63,6.97,2.52,10.98c3.83-2.5,7.38-4.74,10.85-7.09
	c3.18-2.15,5.99-1.94,8.69,0.83c3.84,3.93,7.73,7.8,11.64,11.65c2.62,2.58,2.91,5.32,0.88,8.39c-2.33,3.52-4.59,7.08-7.15,11.04
	c3.57,0.79,6.77,1.49,9.97,2.21c7.59,1.71,7.66,1.79,8.5,9.91c1.27,0,2.6,0,3.92,0c47.28,0,94.56-0.02,141.84,0.05
	c2.31,0,3.84-0.56,5.29-2.5c3.1-4.15,7.56-6.1,12.67-6.15c11.85-0.11,23.7-0.18,35.55,0c9.18,0.14,15.99,6.51,16.27,15.69
	c0.37,12.21,0.33,24.45,0.03,36.67c-0.2,8.19-5.81,14.3-13.47,15.71c-7.68,1.41-14.7-2.44-18.16-9.97c-0.25-0.54-0.49-1.08-0.91-2
	c-1.19,1.12-2.17,2-3.1,2.93c-25.85,25.84-51.69,51.69-77.54,77.53c-6.74,6.73-12.19,6.71-18.94-0.06
	c-8.27-8.29-16.53-16.59-25.65-25.74c-0.95,1.45-1.54,2.78-2.5,3.74c-14.07,14.15-28.13,28.32-42.33,42.35
	c-9.5,9.38-24.67,5.44-27.85-7.18c-1.43-5.69-0.28-11,3.88-15.26c8.28-8.48,16.69-16.83,25.11-25.17c2.78-2.75,5.91-2.84,8.3-0.51
	c2.47,2.41,2.34,5.64-0.56,8.58c-7.54,7.63-15.16,15.18-22.75,22.77c-0.71,0.71-1.48,1.36-2.08,2.15c-1.76,2.31-1.71,4.67,0.29,6.77
	c2.09,2.19,4.6,2.67,6.98,0.57c2.71-2.39,5.19-5.04,7.75-7.6c12.44-12.43,24.87-24.89,37.32-37.31c6.19-6.18,11.93-6.17,18.13,0.02
	c8.38,8.37,16.72,16.79,26.24,26.36c0.86-1.47,1.38-2.98,2.39-4c28.63-28.71,57.3-57.37,85.97-86.04c0.79-0.79,1.47-1.94,2.43-2.28
	c1.88-0.67,4.24-1.68,5.82-1.06c1.57,0.61,3.08,2.9,3.47,4.71c0.6,2.74,0.17,5.7,0.25,8.57c0.11,3.82,2.02,6.13,5.04,6.21
	c3.13,0.09,5.36-2.35,5.38-6.3c0.07-11.23,0.09-22.46-0.01-33.68c-0.04-4.13-1.91-5.95-6.03-5.97c-11.23-0.08-22.45-0.06-33.68-0.01
	c-3.91,0.02-5.97,1.89-6.04,5.15c-0.07,3.36,2.09,5.22,6.2,5.3c1.87,0.04,3.74,0.05,5.61,0c3.1-0.08,6.1,0.08,7.59,3.45
	c1.51,3.42-0.53,5.63-2.73,7.82c-8.32,8.27-16.59,16.57-24.88,24.87c-16.05,16.06-32.1,32.12-48.16,48.16
	c-6.61,6.6-12.14,6.63-18.68,0.06c-8.27-8.3-16.52-16.63-25.58-25.76c-1.67,1.98-3.07,3.85-4.68,5.5
	c-4.01,4.11-8.04,8.19-12.2,12.14c-2.37,2.25-5.69,2.22-7.75,0.12c-2.24-2.28-2.62-5.19-0.5-7.42c6.18-6.51,12.46-12.96,19.12-18.96
	c4.17-3.75,10.14-2.83,14.51,1.49c7.81,7.72,15.55,15.5,23.29,23.29c0.96,0.97,1.69,2.16,2.2,2.82
	c17.63-17.62,34.8-34.77,51.96-51.93c-50.95,0-102.14,0-152.56,0c-5.7,5.76-11,11.3-16.53,16.6c-2.17,2.08-4.85,1.52-7.26-0.04
	c-3.54-2.3-7.06-4.62-11.06-7.23c-0.94,4.4-1.78,8.34-2.62,12.28c-0.98,4.56-2.52,5.88-7.15,5.92c-5.36,0.05-10.73-0.05-16.09,0.03
	c-3.9,0.05-5.97-1.83-6.69-5.59c-0.76-4.01-1.69-7.99-2.68-12.56c-3.75,2.41-7.15,4.61-10.57,6.79c-3.89,2.47-6.13,2.37-9.26-0.91
	c-4.62-4.84-9.04-9.87-13.6-14.76c-0.43-0.46-1.27-0.73-1.93-0.73c-7.72-0.05-15.45-0.03-23.56-0.03c-0.08,1.54-0.2,2.88-0.2,4.21
	c-0.01,52.15-0.02,104.29,0,156.44c0,12.14,6.07,18.2,18.13,18.21c6.22,0.01,12.45,0,18.58,0c7.86-23.08,20.6-34.19,39.48-34.36
	c9.96-0.09,18.86,3.1,26.47,9.6c6.19,5.29,7.64,7.87,14.12,24.75c1.26,0,2.62,0,3.98,0c65.24,0,130.49-0.16,195.73,0.14
	c11.78,0.05,18.74-7.79,18.64-18.74c-0.34-38.42-0.13-76.84-0.13-115.27c0-1.25-0.1-2.51,0.07-3.74c0.41-2.98,2.18-4.73,5.2-4.91
	c3.04-0.18,4.97,1.46,5.74,4.31c0.32,1.17,0.21,2.48,0.21,3.72c0.01,38.92,0.02,77.84,0,116.77c-0.01,17.68-11.31,28.93-29.05,28.94
	c-26.2,0.01-52.39,0-78.59,0c-1.36,0-2.72,0-4.52,0c2.65,10.43,5.22,20.53,7.79,30.62c4.18,16.41,8.4,32.82,12.54,49.24
	c2.34,9.28-1.97,16.55-11.02,18.85c-9.54,2.42-17.57-1.75-19.92-10.75c-7.28-27.96-14.39-55.96-21.57-83.95
	c-0.31-1.2-0.64-2.4-1.01-3.79c-5.96,0-11.89,0-18.31,0c0,1.58,0,3.04,0,4.49c0,25.7,0.02,51.4-0.03,77.1c0,2.35-0.06,4.8-0.72,7.02
	c-2.11,7.13-9.43,11.68-16.49,10.54c-7.41-1.2-12.87-7.48-12.89-15.19c-0.06-26.45-0.02-52.89-0.03-79.34c0-1.47,0-2.93,0-4.81
	c-5.79,0-11.25-0.16-16.68,0.16c-0.9,0.05-2.12,2.07-2.46,3.36c-5.17,19.89-10.22,39.81-15.29,59.72
	c-2.03,7.96-4.06,15.93-6.08,23.9c-1.57,6.21-5.14,10.44-11.63,11.74c-6.78,1.36-12.66-0.37-17.27-5.55
	c-3.11-3.49-3.82-7.72-2.66-12.27c3.94-15.45,7.85-30.9,11.77-46.35c0.24-0.94,0.38-1.9,0.7-3.5c-12.41,4.7-24.22,4.41-35.51-1.98
	c-11.34-6.42-17.92-16.28-20.28-29.25c-6.73,0-13.33,0.02-19.93,0c-16.58-0.07-28.2-11.23-28.24-27.83
	c-0.13-57.63-0.12-115.27,0-172.9c0.03-15.63,10-26.13,25.63-27.78c0.36-0.04,0.7-0.19,1.28-0.34c0.1-0.79,0.32-1.62,0.29-2.45
	c-0.16-3.98,1.99-5.93,5.65-6.66c4.03-0.81,8.04-1.65,12.59-2.58c-2.46-3.8-4.76-7.31-7.01-10.86c-2.35-3.7-2.12-5.82,0.96-8.94
	c3.68-3.73,7.38-7.44,11.11-11.12c3.32-3.28,5.19-3.45,9.24-0.88c3.36,2.13,6.68,4.32,10.51,6.81c0.9-4.05,1.44-7.84,2.64-11.41
	c0.81-2.43,2.55-4.55,3.87-6.81C102.32,8,109.8,8,117.29,8z M144.06,100.21c-1.78-2.73-3.57-5.71-5.59-8.52
	c-1.93-2.69-2.03-5.41-1.14-8.49c1.53-5.25,5.12-7.35,10.31-8.26c8.24-1.45,8.2-1.71,7.79-10.01c-0.01-0.22-0.2-0.44-0.39-0.85
	c-3.27-0.71-6.67-1.47-10.08-2.18c-6.64-1.38-10.34-9.82-6.76-15.53c1.96-3.14,3.99-6.24,6-9.36c-2.22-2.25-4.23-4.28-6.45-6.52
	c-3.07,2-6.06,3.99-9.09,5.91c-5.93,3.76-14.38,0.18-15.84-6.68c-0.74-3.48-1.51-6.95-2.28-10.49c-2.28,0-4.16,0.15-6.01-0.04
	c-2.48-0.25-3.57,0.63-3.85,3.19c-0.29,2.71-0.99,5.38-1.66,8.04c-1.54,6.13-9.98,9.53-15.36,6.18c-3.15-1.96-6.23-4.02-9.08-5.87
	c-2.31,2.34-4.39,4.44-6.59,6.67c1.81,2.79,3.73,5.69,5.59,8.62c3.76,5.93,0.3,14.34-6.54,15.89c-3.47,0.79-6.95,1.52-10.52,2.3
	c0,2.29,0.14,4.16-0.03,6.01c-0.23,2.47,0.65,3.59,3.2,3.85c2.59,0.27,5.13,0.97,7.67,1.58c6.37,1.52,9.89,9.94,6.44,15.48
	c-1.95,3.14-4.02,6.2-5.71,8.81c2.3,2.55,4.27,4.73,6.29,6.98c2.68-1.74,5.18-3.36,7.68-4.98c7.66-4.96,15.51-1.65,17.37,7.31
	c0.35,1.71,0.99,3.39,1.09,5.1c0.17,3.22,1.71,3.88,4.78,4.02c4.11,0.19,6.26-0.91,6.44-5.24c0.08-1.84,0.7-3.66,1.09-5.49
	c1.42-6.59,9.92-10.23,15.63-6.66c3.05,1.91,6.03,3.93,8.78,5.72C139.57,104.48,141.71,102.44,144.06,100.21z M326.46,88.43
	c-0.11-0.49-0.21-0.97-0.32-1.46c-4.78-1.77-8.76-4.64-10.4-9.53c-0.95-2.85-2.57-3.04-4.97-3.04c-46.63,0.04-93.27,0.03-139.9,0.03
	c-1.32,0-2.64,0-3.91,0c-0.68,7.82-1.14,8.31-8.59,9.84c-3.13,0.64-6.25,1.32-9.49,2.01c0.89,3.01,2.32,4.22,5.41,4.22
	c55.36-0.1,110.72-0.05,166.09-0.16C322.41,90.34,324.43,89.1,326.46,88.43z M134.69,286.15c-0.02-15.89-12.94-28.84-28.75-28.78
	c-15.92,0.05-28.83,12.98-28.77,28.79c0.06,15.8,13.07,28.78,28.84,28.77C121.92,314.92,134.71,302.09,134.69,286.15z
	 M242.04,291.88c0.1,0.9,0.1,1.4,0.22,1.87c7.01,27.51,14.01,55.02,21.06,82.51c0.79,3.09,3.24,4.44,6.3,3.66
	c3.26-0.84,3.86-3.03,3.09-6.05c-5.07-19.65-10.09-39.31-15.13-58.97c-1.97-7.68-3.93-15.35-5.9-23.02
	C248.31,291.88,245.34,291.88,242.04,291.88z M145.91,291.9c0.32,0.21,0.63,0.43,0.95,0.64c-3.29,6.32-6.6,12.64-9.87,18.97
	c-0.4,0.77-0.66,1.61-0.88,2.45c-5.1,20-10.23,39.99-15.18,60.02c-0.37,1.51,0.05,4.23,1.05,4.83c1.54,0.93,4.16,1.15,5.82,0.46
	c1.32-0.55,2.29-2.8,2.73-4.47c3.91-14.91,7.66-29.86,11.47-44.8c3.22-12.63,6.45-25.26,9.73-38.11
	C149.59,291.9,147.75,291.9,145.91,291.9z M193.07,291.92c-0.09,0.8-0.18,1.17-0.18,1.54c-0.01,27.16-0.02,54.32-0.01,81.48
	c0,0.74-0.2,1.81,0.2,2.17c1.19,1.07,2.6,2.52,3.97,2.56c1.1,0.04,2.52-1.59,3.3-2.8c0.52-0.81,0.21-2.18,0.21-3.3
	c0.01-25.91,0.01-51.83,0-77.74c0-1.31-0.14-2.61-0.21-3.91C197.7,291.92,195.51,291.92,193.07,291.92z M29.54,90.43
	c1.21,0,2.42,0,3.63,0c8.09,0,16.17-0.14,24.25,0.07c3.13,0.08,4.82-1.01,5.59-4.23c-4.25-0.91-8.35-1.81-12.45-2.66
	c-3.36-0.69-5.27-2.57-5.29-6.14c0-0.93-0.2-1.86-0.3-2.75C36.18,74.47,29.61,81.11,29.54,90.43z"/>
<path d="M95.36,180.77c-8.84,0-17.68,0.03-26.52-0.01c-5.67-0.03-7.56-1.97-7.58-7.71c-0.02-5.98-0.03-11.95,0-17.93
	c0.03-5.36,1.87-7.26,7.12-7.27c18.06-0.02,36.11-0.02,54.17,0c5.34,0.01,7.16,1.81,7.21,7.18c0.06,6.23,0.07,12.45-0.01,18.68
	c-0.06,5-2.08,7.01-7.12,7.04C113.54,180.82,104.45,180.77,95.36,180.77z M72.63,169.26c15.39,0,30.47,0,45.68,0
	c0-3.47,0-6.64,0-9.91c-15.33,0-30.43,0-45.68,0C72.63,162.7,72.63,165.79,72.63,169.26z"/>
<path d="M282.32,254.27c-16.82,0-33.64,0-50.46,0c-1,0-2.01,0.08-2.99-0.05c-3.14-0.41-4.95-2.26-5.2-5.4
	c-0.23-2.93,2.08-5.36,5.24-5.73c0.86-0.1,1.74-0.05,2.61-0.05c33.89,0,67.78,0,101.67,0c0.87,0,1.75-0.05,2.61,0.04
	c3.23,0.33,5.36,2.58,5.35,5.61c-0.01,3.03-2.16,5.3-5.4,5.54c-1.74,0.13-3.49,0.04-5.23,0.04
	C314.47,254.27,298.39,254.27,282.32,254.27z"/>
<path d="M303.94,229.62c-9.97,0-19.94,0.02-29.91-0.01c-4.45-0.01-6.95-2.01-7.02-5.47c-0.07-3.6,2.53-5.73,7.16-5.74
	c19.94-0.02,39.89-0.02,59.83,0c4.71,0,7.22,2.04,7.17,5.7c-0.04,3.63-2.5,5.51-7.32,5.52
	C323.88,229.64,313.91,229.62,303.94,229.62z"/>
<path d="M86.43,201.96c-6.22,0-12.44,0.05-18.66-0.02c-4-0.04-6.54-2.34-6.47-5.66c0.07-3.16,2.55-5.5,6.3-5.52
	c12.57-0.07,25.14-0.07,37.7,0c3.83,0.02,6.15,2.26,6.19,5.54c0.04,3.49-2.26,5.6-6.39,5.64C98.87,202.01,92.65,201.96,86.43,201.96
	z"/>
<path class="st0" d="M29.54,90.43c0.07-9.32,6.64-15.96,15.44-15.72c0.1,0.89,0.3,1.82,0.3,2.75c0.01,3.58,1.92,5.45,5.29,6.14
	c4.11,0.85,8.2,1.75,12.45,2.66c-0.77,3.23-2.47,4.31-5.59,4.23c-8.08-0.21-16.17-0.07-24.25-0.07
	C31.96,90.43,30.75,90.43,29.54,90.43z"/>
<path d="M106.01,45.04c13.08,0.01,23.83,10.82,23.72,23.84c-0.11,12.94-10.72,23.56-23.59,23.64
	c-13.01,0.08-23.87-10.68-23.92-23.69C82.16,55.81,92.94,45.03,106.01,45.04z M105.85,56.26c-6.81,0.09-12.38,5.66-12.41,12.42
	c-0.04,6.86,5.8,12.67,12.65,12.6c6.88-0.07,12.6-5.99,12.4-12.83C118.28,61.63,112.62,56.18,105.85,56.26z"/>
<path d="M111.49,286.15c0,2.61,0.12,5.23-0.03,7.83c-0.18,3.17-1.96,5.03-5.17,5.27c-3.1,0.23-5.62-1.71-5.79-5.03
	c-0.27-5.33-0.26-10.69-0.02-16.01c0.15-3.23,2.8-5.31,5.74-5.17c2.95,0.13,5.09,2.35,5.27,5.66c0.13,2.48,0.03,4.97,0.03,7.45
	C111.5,286.15,111.49,286.15,111.49,286.15z"/>
<path class="st0" d="M105.85,56.26c6.77-0.09,12.43,5.37,12.63,12.19c0.2,6.85-5.51,12.77-12.4,12.83
	c-6.85,0.07-12.69-5.74-12.65-12.6C93.48,61.93,99.05,56.35,105.85,56.26z"/>
</svg>
