<?xml version="1.0" encoding="utf-8"?>
<!-- Generator: Adobe Illustrator 27.8.1, SVG Export Plug-In . SVG Version: 6.00 Build 0)  -->
<svg version="1.1" id="Layer_1" xmlns="http://www.w3.org/2000/svg" xmlns:xlink="http://www.w3.org/1999/xlink" x="0px" y="0px"
	 viewBox="0 0 27.69 29.79" style="enable-background:new 0 0 27.69 29.79;" xml:space="preserve">
<g>
	<path d="M0.3,17.22c0.16-0.21,0.3-0.43,0.48-0.61c0.7-0.71,1.41-1.41,2.11-2.12c0.48-0.47,0.98-0.43,1.38,0.12
		c0.64,0.89,1.27,1.78,1.9,2.67c0.34,0.48,0.31,0.83-0.1,1.24c-0.12,0.13-0.24,0.27-0.38,0.37c-0.56,0.42-0.69,1.01-0.68,1.66
		c0.01,2.07,1.82,3.82,3.89,3.75c0.58-0.02,1.11-0.15,1.5-0.64c0.14-0.19,0.33-0.34,0.5-0.51c0.29-0.27,0.67-0.33,0.99-0.11
		c1,0.7,1.99,1.4,2.97,2.12c0.37,0.27,0.41,0.8,0.09,1.12c-0.83,0.85-1.67,1.7-2.53,2.52c-0.14,0.14-0.42,0.2-0.63,0.2
		c-2.11,0.02-4.06-0.55-5.84-1.66c-2.67-1.66-4.47-4-5.29-7.05c-0.15-0.56-0.21-1.14-0.31-1.71c-0.02-0.09-0.03-0.17-0.05-0.26
		C0.3,17.96,0.3,17.59,0.3,17.22z"/>
	<path d="M15.81,1.93c0.18,0.04,0.36,0.08,0.53,0.14c0.96,0.3,1.64,1.13,1.68,2.15c0.03,0.72,0.04,1.45,0,2.17
		c-0.06,1.17-1.11,2.16-2.3,2.23c-1.28,0.07-2.45-0.77-2.59-2c-0.1-0.88-0.09-1.8,0.01-2.69c0.11-1.03,0.97-1.79,1.99-1.94
		c0.07-0.01,0.13-0.03,0.2-0.05C15.49,1.93,15.65,1.93,15.81,1.93z M16.45,5.29c0-0.3,0.01-0.6,0-0.9
		c-0.02-0.51-0.38-0.86-0.88-0.87c-0.49-0.01-0.89,0.34-0.91,0.84c-0.02,0.61-0.02,1.22,0,1.82c0.02,0.51,0.41,0.84,0.91,0.84
		c0.5,0,0.86-0.35,0.89-0.86C16.46,5.87,16.45,5.58,16.45,5.29z"/>
	<path d="M11.52,1.93c0.33,0.16,0.56,0.39,0.57,0.78c0.01,0.43-0.31,0.77-0.75,0.8c-0.16,0.01-0.32,0-0.52,0c0,0.1,0,0.2,0,0.29
		c0,1.3,0,2.61,0,3.91c0,0.54-0.3,0.88-0.77,0.89C9.57,8.62,9.24,8.3,9.24,7.8c-0.01-0.87,0-1.75,0-2.62c0-0.54,0-1.09,0-1.66
		c-0.16,0-0.3,0-0.44,0C8.37,3.51,8.06,3.27,7.98,2.9C7.9,2.49,8.08,2.16,8.49,1.97c0.02-0.01,0.04-0.03,0.06-0.05
		C9.54,1.93,10.53,1.93,11.52,1.93z"/>
	<path d="M25.07,1.93c0.48,0.16,0.64,0.51,0.64,1c-0.02,1.26-0.01,2.52-0.01,3.78c0,0.1,0,0.19,0,0.32c0.31,0,0.6-0.01,0.89,0
		c0.59,0.03,0.94,0.52,0.76,1.06c-0.11,0.31-0.34,0.51-0.67,0.51c-0.62,0.02-1.23,0.02-1.85,0c-0.4-0.01-0.71-0.35-0.71-0.75
		c-0.01-1.72,0-3.44,0-5.16c0-0.4,0.26-0.61,0.58-0.77C24.82,1.93,24.94,1.93,25.07,1.93z"/>
	<path d="M20.41,1.93c0.47,0.18,0.63,0.53,0.62,1.01c-0.02,1.24-0.01,2.48-0.01,3.73c0,0.1,0,0.21,0,0.36c0.3,0,0.59-0.01,0.88,0
		c0.56,0.02,0.89,0.43,0.8,0.95c-0.06,0.34-0.31,0.61-0.66,0.62c-0.63,0.02-1.27,0.03-1.9,0c-0.41-0.01-0.69-0.35-0.7-0.79
		c-0.01-0.49,0-0.99,0-1.48c0-1.13,0.01-2.26-0.01-3.38c-0.01-0.49,0.14-0.84,0.61-1.02C20.16,1.93,20.29,1.93,20.41,1.93z"/>
	<path d="M17,14.97c0.26,0.25,0.49,0.47,0.72,0.71c0.39,0.39,0.42,0.88,0.08,1.21c-0.34,0.34-0.81,0.3-1.21-0.1
		c-0.36-0.35-0.73-0.69-1.06-1.07c-0.25-0.29-0.52-0.35-0.89-0.27c0,0.25,0,0.52,0,0.78c0,0.54-0.32,0.89-0.8,0.89
		c-0.47,0-0.79-0.34-0.79-0.87c0-1.65,0-3.3,0-4.94c0-0.54,0.32-0.86,0.85-0.86c0.53,0,1.06,0,1.59,0c1.14,0.01,2.01,0.6,2.38,1.63
		c0.38,1.03,0.1,2.05-0.75,2.79C17.09,14.89,17.06,14.92,17,14.97z M14.65,13.83c0.28,0,0.53,0,0.78,0c0.07,0,0.14,0,0.21-0.01
		c0.47-0.06,0.78-0.39,0.8-0.84c0.02-0.47-0.25-0.87-0.68-0.93c-0.36-0.04-0.73-0.01-1.11-0.01C14.65,12.64,14.65,13.22,14.65,13.83
		z"/>
	<path d="M25.71,12.01c0,0.36,0,0.65,0,0.98c0.17,0,0.32,0,0.48,0c0.43,0.02,0.73,0.3,0.77,0.72c0.04,0.41-0.23,0.76-0.64,0.84
		c-0.2,0.04-0.4,0.03-0.61,0.04c-0.01,0.04-0.01,0.08-0.01,0.11c0,0.26,0,0.53,0,0.83c0.31,0,0.6-0.01,0.9,0
		c0.58,0.02,0.94,0.54,0.74,1.07c-0.12,0.33-0.36,0.5-0.7,0.51c-0.59,0.01-1.18,0.02-1.77,0c-0.42-0.01-0.75-0.35-0.75-0.77
		c-0.01-1.71-0.01-3.42,0-5.13c0-0.44,0.33-0.76,0.78-0.77c0.57-0.01,1.15-0.01,1.72,0c0.45,0.01,0.75,0.31,0.78,0.74
		c0.03,0.42-0.25,0.78-0.69,0.82C26.38,12.03,26.06,12.01,25.71,12.01z"/>
	<path d="M21.02,14.57c0,0.3,0,0.55,0,0.81c0,0.04,0.01,0.08,0.02,0.15c0.28,0,0.55,0,0.82,0c0.51,0.01,0.84,0.32,0.85,0.78
		c0.01,0.47-0.34,0.8-0.86,0.8c-0.52,0-1.04,0-1.56,0c-0.53,0-0.86-0.31-0.86-0.83c-0.01-1.68-0.01-3.35,0-5.03
		c0-0.51,0.32-0.82,0.83-0.83c0.54-0.01,1.08-0.01,1.61,0c0.5,0.01,0.82,0.31,0.83,0.77c0.01,0.45-0.3,0.78-0.79,0.81
		c-0.29,0.02-0.58,0-0.88,0c-0.01,0.08-0.02,0.13-0.02,0.18c0,0.25,0,0.49,0,0.78c0.16,0,0.31,0,0.45,0
		c0.48,0.01,0.79,0.31,0.81,0.76c0.02,0.45-0.31,0.79-0.79,0.82C21.35,14.58,21.21,14.57,21.02,14.57z"/>
	<path d="M9.97,15c0,0.45,0.01,0.87,0,1.29c-0.02,0.65-0.61,1.01-1.17,0.73c-0.3-0.15-0.42-0.41-0.42-0.74c0-0.91,0-1.82,0-2.72
		c0-0.75,0-1.5,0-2.25c0-0.57,0.31-0.87,0.89-0.88c0.65,0,1.3,0,1.96,0c0.52,0,0.85,0.3,0.86,0.77c0.01,0.46-0.33,0.8-0.85,0.82
		c-0.41,0.01-0.82,0-1.25,0c0,0.47,0,0.91,0,1.39c0.28,0,0.55,0,0.82,0c0.51,0.01,0.84,0.32,0.85,0.78c0.01,0.47-0.34,0.8-0.86,0.81
		C10.54,15,10.28,15,9.97,15z"/>
</g>
</svg>
