<?xml version="1.0" encoding="utf-8"?>
<!-- Generator: Adobe Illustrator 27.8.1, SVG Export Plug-In . SVG Version: 6.00 Build 0)  -->
<svg version="1.1" id="Layer_1" xmlns="http://www.w3.org/2000/svg" xmlns:xlink="http://www.w3.org/1999/xlink" x="0px" y="0px"
	 viewBox="0 0 35.69 29.79" style="enable-background:new 0 0 35.69 29.79;" xml:space="preserve">
<g>
	<path d="M35.52,24.63c-0.09,0.29-0.19,0.58-0.31,0.96c-3.55-3.62-7.06-7.2-10.48-10.7c3.41-3.48,6.93-7.06,10.48-10.69
		c0.12,0.37,0.21,0.66,0.31,0.96C35.52,11.65,35.52,18.14,35.52,24.63z"/>
	<path d="M1.99,2.68C2.49,2.61,3,2.48,3.5,2.48c6.79-0.01,13.58-0.01,20.36-0.01c2.8,0,5.59-0.01,8.39,0.01
		c0.48,0,0.97,0.13,1.45,0.2c0,0.04,0.01,0.08,0.01,0.12c-0.08,0.09-0.16,0.18-0.25,0.26c-4.42,4.4-8.84,8.8-13.26,13.19
		c-1.16,1.16-2.58,1.39-3.92,0.63c-0.29-0.16-0.54-0.39-0.78-0.62c-4.43-4.4-8.86-8.81-13.29-13.22C2.14,2.96,2.06,2.88,1.98,2.8
		C1.99,2.76,1.99,2.72,1.99,2.68z"/>
	<path d="M33.59,27.13c-0.39,0.05-0.89,0.18-1.4,0.18c-6.67,0.01-13.34,0.01-20.01,0.01c-2.91,0-5.82,0.01-8.73-0.01
		c-0.48,0-0.97-0.13-1.39-0.19c3.54-3.61,7.05-7.19,10.59-10.79c0.52,0.52,0.98,0.99,1.45,1.46c1.11,1.1,2.44,1.66,4.01,1.58
		c1.37-0.07,2.53-0.62,3.49-1.59c0.46-0.46,0.92-0.93,1.42-1.43C26.56,19.96,30.07,23.54,33.59,27.13z"/>
	<path d="M0.54,4.25c3.51,3.58,7.02,7.16,10.44,10.65c-3.42,3.49-6.93,7.07-10.47,10.68c-0.27-0.53-0.34-1.02-0.34-1.53
		c0-3.11,0-6.21,0-9.32c0-3-0.01-6.01,0.01-9.01c0-0.48,0.14-0.95,0.21-1.43C0.44,4.27,0.49,4.26,0.54,4.25z"/>
</g>
</svg>
