<?xml version="1.0" encoding="utf-8"?>
<!-- Generator: Adobe Illustrator 27.8.1, SVG Export Plug-In . SVG Version: 6.00 Build 0)  -->
<svg version="1.1" id="Layer_1" xmlns="http://www.w3.org/2000/svg" xmlns:xlink="http://www.w3.org/1999/xlink" x="0px" y="0px"
	 viewBox="0 0 28.69 29.79" style="enable-background:new 0 0 28.69 29.79;" xml:space="preserve">
<g>
	<path d="M28.37,22.07c-0.07,0.41-0.12,0.83-0.23,1.23c-0.83,2.95-2.74,4.83-5.74,5.46c-3.98,0.84-7.89-1.81-8.68-5.8
		c-0.79-4,1.82-7.91,5.82-8.69c3.99-0.78,7.89,1.83,8.67,5.82c0.06,0.29,0.1,0.59,0.15,0.88C28.37,21.34,28.37,21.71,28.37,22.07z
		 M21.8,20.7c0-0.13,0-0.23,0-0.33c0-0.71,0.01-1.42,0-2.13c-0.01-0.47-0.37-0.82-0.82-0.82c-0.44,0-0.81,0.34-0.82,0.79
		c-0.01,1.11-0.01,2.23,0,3.34c0,0.44,0.34,0.79,0.78,0.79c1.11,0.01,2.23,0.01,3.34,0c0.35,0,0.61-0.19,0.74-0.52
		c0.22-0.54-0.17-1.11-0.78-1.12C23.44,20.7,22.64,20.7,21.8,20.7z"/>
	<path d="M6.35,0.88C6.82,1.08,7,1.45,6.95,1.95C6.94,2.16,6.95,2.37,6.95,2.58c0,0,0.01-0.01,0.01-0.01c-0.55,0-1.1,0-1.65,0
		l0.01,0.01c0-0.21,0.01-0.42-0.01-0.63c-0.04-0.5,0.14-0.86,0.61-1.07C6.06,0.88,6.2,0.88,6.35,0.88z"/>
	<path d="M11.28,0.88c0.47,0.21,0.65,0.57,0.61,1.07c-0.02,0.21-0.01,0.42-0.01,0.63c0,0,0.01-0.01,0.01-0.01c-0.55,0-1.1,0-1.65,0
		l0.01,0.01c0-0.21,0.01-0.42-0.01-0.63c-0.04-0.5,0.14-0.86,0.61-1.07C10.99,0.88,11.13,0.88,11.28,0.88z"/>
	<path d="M16.21,0.88c0.47,0.21,0.65,0.57,0.61,1.07c-0.02,0.21-0.01,0.42-0.01,0.63l0.01-0.01c-0.55,0-1.1,0-1.65,0l0.01,0.01
		c0-0.21,0.01-0.42-0.01-0.63c-0.04-0.5,0.14-0.86,0.61-1.07C15.92,0.88,16.06,0.88,16.21,0.88z"/>
	<path d="M20.1,2.58c0-0.21,0.01-0.42-0.01-0.63c-0.04-0.5,0.14-0.86,0.61-1.07c0.15,0,0.29,0,0.44,0c0.47,0.21,0.65,0.57,0.61,1.07
		c-0.02,0.21-0.01,0.42-0.01,0.63c0,0,0.01-0.01,0.01-0.01C21.19,2.57,20.64,2.57,20.1,2.58L20.1,2.58z"/>
	<path d="M21.17,12.44c0.52-0.36,0.66-0.67,0.53-1.08c-0.13-0.41-0.43-0.57-1.03-0.57c-0.45,0-0.89,0-1.34,0
		c-0.51,0.01-0.87,0.36-0.87,0.83c0.01,0.46,0.36,0.8,0.86,0.81c0.29,0.01,0.58,0,0.88,0.02c-1.9,0.18-3.59,0.88-5.09,2.12
		c-0.25-0.48-0.67-0.51-1.13-0.49c-0.41,0.01-0.82,0-1.23,0c-0.49,0.01-0.85,0.35-0.86,0.81c-0.01,0.47,0.36,0.82,0.86,0.83
		c0.38,0.01,0.76,0,1.15,0c-0.32,0.53-0.63,1.04-0.95,1.55c-0.04,0.06-0.15,0.09-0.23,0.09c-0.37,0.02-0.65,0.19-0.78,0.54
		c-0.13,0.35-0.02,0.63,0.23,0.89c0.06,0.06,0.08,0.21,0.05,0.31c-0.22,0.83-0.36,1.68-0.34,2.54c0.03,1.28,0.31,2.49,0.86,3.65
		c0.04,0.08,0.07,0.16,0.12,0.28c-0.1,0.01-0.19,0.01-0.27,0.01c-3.76,0-7.52,0-11.28,0c-0.68,0-0.99-0.31-0.99-0.98
		c0-5.06,0-10.11,0-15.17c0-0.08,0-0.16,0-0.26c8.78,0,17.55,0,26.33,0c0,1.76,0,3.51,0,5.32C25.04,13.2,23.23,12.52,21.17,12.44z
		 M6.95,12.43c0.27,0,0.55,0.01,0.82,0c0.47-0.02,0.82-0.37,0.82-0.82c0-0.45-0.35-0.81-0.82-0.82c-0.55-0.01-1.1-0.01-1.64,0
		c-0.47,0.01-0.82,0.37-0.82,0.82c0,0.45,0.35,0.8,0.82,0.82C6.4,12.44,6.68,12.43,6.95,12.43z M13.51,12.43
		c0.27,0,0.55,0.01,0.82,0c0.49-0.01,0.84-0.37,0.84-0.83c0-0.45-0.35-0.8-0.83-0.81c-0.54-0.01-1.08-0.01-1.62,0
		c-0.49,0.01-0.84,0.37-0.84,0.83c0,0.46,0.36,0.8,0.85,0.81C12.99,12.44,13.25,12.43,13.51,12.43z M6.96,14.08
		c-0.27,0-0.55-0.01-0.82,0c-0.47,0.01-0.82,0.36-0.83,0.81c0,0.45,0.34,0.81,0.81,0.82c0.55,0.01,1.1,0.01,1.64,0
		c0.47-0.01,0.82-0.36,0.83-0.81c0-0.46-0.35-0.81-0.84-0.83C7.49,14.07,7.22,14.08,6.96,14.08z M6.93,19c0.28,0,0.57,0.01,0.85,0
		c0.47-0.02,0.82-0.37,0.82-0.82c0-0.45-0.35-0.81-0.82-0.82c-0.55-0.01-1.1-0.01-1.64,0c-0.47,0.01-0.82,0.37-0.82,0.82
		c0,0.45,0.35,0.8,0.82,0.82C6.4,19.01,6.66,19,6.93,19z M6.95,22.29c0.27,0,0.55,0.01,0.82,0c0.47-0.02,0.82-0.37,0.82-0.82
		c0-0.45-0.35-0.81-0.82-0.82c-0.55-0.01-1.1-0.01-1.64,0c-0.47,0.01-0.82,0.37-0.82,0.82c0,0.45,0.35,0.8,0.82,0.82
		C6.4,22.3,6.68,22.29,6.95,22.29z"/>
	<path d="M16.81,2.58c1.1,0,2.2,0,3.29,0l-0.01-0.01c0,0.8,0,1.6,0,2.41c0,0.37,0.15,0.66,0.49,0.81c0.56,0.25,1.14-0.15,1.15-0.79
		c0.01-0.81,0-1.62,0.01-2.43c0,0-0.01,0.01-0.01,0.01c1.35,0,2.7-0.01,4.05,0c0.51,0,0.87,0.31,0.87,0.79c0.01,1.37,0,2.74,0,4.12
		c-8.78,0-17.54,0-26.33,0c0-0.09-0.01-0.17-0.01-0.26c0-1.22,0-2.45,0-3.67c0-0.67,0.3-0.98,0.96-0.98c1.34,0,2.68,0,4.03,0
		L5.31,2.57c0,0.8,0,1.6,0,2.41c0,0.37,0.15,0.66,0.49,0.81C6.36,6.04,6.94,5.64,6.95,5c0.01-0.81,0-1.62,0.01-2.43
		c0,0-0.01,0.01-0.01,0.01c1.1,0,2.2,0,3.29,0l-0.01-0.01c0,0.8,0,1.6,0,2.41c0,0.37,0.15,0.66,0.49,0.81
		c0.56,0.25,1.14-0.15,1.15-0.79c0.01-0.81,0-1.62,0.01-2.43c0,0-0.01,0.01-0.01,0.01c1.1,0,2.2,0,3.29,0l-0.01-0.01
		c0,0.8,0,1.6,0,2.41c0,0.37,0.15,0.66,0.49,0.81C16.22,6.04,16.8,5.64,16.81,5C16.82,4.19,16.81,3.38,16.81,2.58L16.81,2.58z"/>
</g>
</svg>
