<?xml version="1.0" encoding="utf-8"?>
<!-- Generator: Adobe Illustrator 27.8.1, SVG Export Plug-In . SVG Version: 6.00 Build 0)  -->
<svg version="1.1" id="Layer_1" xmlns="http://www.w3.org/2000/svg" xmlns:xlink="http://www.w3.org/1999/xlink" x="0px" y="0px"
	 viewBox="0 0 27.69 29.79" style="enable-background:new 0 0 27.69 29.79;" xml:space="preserve">
<path d="M0.59,3.51C0.71,2.98,0.92,2.5,1.36,2.14c0.41-0.34,0.88-0.5,1.41-0.5c1.59,0,3.18-0.01,4.76,0
	c1.23,0.01,2.13,0.87,2.17,2.1c0.05,1.61,0.27,3.19,0.76,4.73c0.25,0.79,0.06,1.49-0.46,2.15c-0.74,0.92-1.43,1.88-2.14,2.83
	c-0.05,0.06-0.04,0.21,0,0.29c1.57,2.99,3.82,5.31,6.78,6.96c0.41,0.23,0.66,0.22,1.02-0.07c0.86-0.7,1.76-1.36,2.65-2.03
	c0.53-0.39,1.13-0.49,1.77-0.35c0.81,0.18,1.6,0.44,2.41,0.57c0.8,0.13,1.61,0.17,2.42,0.21c1.06,0.06,1.84,0.61,2.11,1.59
	c0.06,0.23,0.08,0.48,0.08,0.72c0.01,1.5-0.01,3,0.01,4.5c0.02,1.22-0.78,2.13-1.83,2.28c-0.02,0-0.03,0.02-0.04,0.03
	c-0.43,0-0.86,0-1.29,0c-0.08-0.01-0.17-0.03-0.25-0.04c-0.96-0.11-1.92-0.18-2.88-0.33c-2.65-0.43-5.15-1.31-7.51-2.61
	c-3.72-2.05-6.73-4.87-9-8.47c-1.97-3.14-3.16-6.55-3.57-10.23C0.68,5.92,0.64,5.36,0.59,4.8C0.59,4.37,0.59,3.94,0.59,3.51z"/>
</svg>
