<svg xmlns="http://www.w3.org/2000/svg" viewBox="0 0 66.87 66.87"><g id="Layer_2" data-name="Layer 2"><g id="Layer_1-2" data-name="Layer 1"><path d="M66.87,6.92V27.56c-.89,2.13-1.63,2.63-4,2.63H56.11c0,.29,0,.5,0,.72,0,1.91,0,3.83,0,5.74,0,.5.15.69.62.87a14.87,14.87,0,0,1,9.47,9.72,30.91,30.91,0,0,1,.71,3.17v2.75c-.08.42-.17.84-.24,1.27A15.09,15.09,0,0,1,37,54.57c-.16-.91-.23-1.84-.35-2.77H32.37V63.25a3.29,3.29,0,0,1-3.6,3.62H3.58A3.27,3.27,0,0,1,0,63.31V49.93c0-2.59,0-5.18,0-7.77a3.23,3.23,0,0,1,3.21-3.34c.34,0,.68,0,1.09,0V38q0-17.15,0-34.27a5.86,5.86,0,0,1,.07-1.11A3.42,3.42,0,0,1,6.92,0H53.55a1.48,1.48,0,0,0,.21.13,3.22,3.22,0,0,1,2.32,3.25v.93h7.14a5.15,5.15,0,0,1,1,.08A3.39,3.39,0,0,1,66.87,6.92ZM16.18,41H3.65c-1.16,0-1.49.31-1.49,1.46V63.27c0,1.1.34,1.43,1.46,1.43H28.75c1.11,0,1.44-.32,1.44-1.43V42.45c0-1.15-.31-1.46-1.48-1.46ZM50.71,6.47H38.18c-1.2,0-1.5.31-1.5,1.52V26.53c0,1.21.33,1.52,1.56,1.53,2.7,0,5.4,0,8.1,0a1,1,0,0,1,1,.49c.74,1,1.51,2,2.26,3s1.49,1,2.28,0,1.5-2,2.22-3a1.11,1.11,0,0,1,1-.53c2.68,0,5.35,0,8,0,1.3,0,1.6-.31,1.6-1.63V8.09c0-1.34-.27-1.62-1.6-1.62ZM19.46,38.81h9.29a3.31,3.31,0,0,1,3.62,3.6v6.47c0,.23,0,.46,0,.71h4.43a15.06,15.06,0,0,1,5.92-9.9,14.77,14.77,0,0,1,11.13-2.87V32.45l-.47.6a3.24,3.24,0,0,1-5.42,0c-.62-.81-1.24-1.62-1.83-2.46a.94.94,0,0,0-.87-.42c-2.37,0-4.75-.07-7.11,0a3.44,3.44,0,0,1-3.69-3.68c.06-5,0-10,0-14.95v-.73h-15Zm32.33,25.9a12.95,12.95,0,1,0-13-12.94A12.94,12.94,0,0,0,51.79,64.71ZM17.22,38.78V10.85H6.52V38.78ZM34.48,8.59a3.63,3.63,0,0,0,0-.44C34.3,6,35.76,4.23,38.4,4.28c4.92.1,9.84,0,14.76,0h.74C54,2.4,53.8,2.16,52,2.16H9c-2.47,0-2.47,0-2.47,2.44v4Z"/><path d="M17.25,62.53H15.11V61.08c0-1.13,0-2.26,0-3.39a2.46,2.46,0,0,0-1-2.49,3.05,3.05,0,0,1,.47-5.1,1,1,0,0,0,.57-1c0-1.71,0-3.43,0-5.15v-.75h2.11c0,.24,0,.47,0,.7,0,1.78,0,3.57,0,5.35a.77.77,0,0,0,.47.81,3.16,3.16,0,0,1,0,5.61.77.77,0,0,0-.47.81C17.26,58.46,17.25,60.46,17.25,62.53Zm0-9.66a1.08,1.08,0,0,0-1.07-1.09,1.05,1.05,0,0,0-1.06,1,1.08,1.08,0,0,0,1,1.13A1.09,1.09,0,0,0,17.25,52.87Z"/><path d="M8.63,62.53H6.48c0-.63,0-1.24,0-1.83a.93.93,0,0,0-.36-.65,3.19,3.19,0,0,1,0-5.74.74.74,0,0,0,.38-.79V43.18H8.63v.7c0,3.2,0,6.39,0,9.59a.86.86,0,0,0,.51.91,3.17,3.17,0,0,1,0,5.55.84.84,0,0,0-.53.9C8.65,61.37,8.63,61.92,8.63,62.53Zm0-5.4a1.07,1.07,0,0,0-1.11-1,1.06,1.06,0,0,0-1,1.07,1.08,1.08,0,0,0,1.08,1.08A1.09,1.09,0,0,0,8.62,57.13Z"/><path d="M23.74,43.16h2.14c0,1.21,0,2.4,0,3.59A1.2,1.2,0,0,0,26.55,48a3.14,3.14,0,0,1-.1,5.41,1,1,0,0,0-.58,1.06c0,2.66,0,5.31,0,8H23.74V61.8q0-3.72,0-7.44a.81.81,0,0,0-.48-.87,3.16,3.16,0,0,1,0-5.58.85.85,0,0,0,.51-.91C23.73,45.74,23.74,44.48,23.74,43.16Zm1.1,8.59a1.06,1.06,0,0,0,0-2.12,1.06,1.06,0,1,0,0,2.12Z"/><path d="M47.77,17.25l-7-3.69-1.27-.67A1.1,1.1,0,0,1,39,11.36,1.09,1.09,0,0,1,40.54,11c2.66,1.4,5.34,2.73,7.94,4.24a2.6,2.6,0,0,0,3.22,0A17.36,17.36,0,0,1,53.87,14l.15-.11a4.37,4.37,0,0,1,3.66-5.26,4.31,4.31,0,0,1,4.66,3,4.16,4.16,0,0,1-.43,3.57,4.63,4.63,0,0,1-3.1,2.06,4.67,4.67,0,0,1,2.81,1.63,4.31,4.31,0,0,1-5,6.69A4.26,4.26,0,0,1,54,21.11a.69.69,0,0,0-.46-.83q-1.49-.75-2.94-1.56a.88.88,0,0,0-1,0q-4.4,2.36-8.81,4.67a3.23,3.23,0,0,1-.66.29,1.06,1.06,0,0,1-1-1.8,2.24,2.24,0,0,1,.55-.35L47,17.65Zm12.62-4.34a2.15,2.15,0,0,0-4.3.07,2.15,2.15,0,1,0,4.3-.07Zm-2.14,6.52a2.13,2.13,0,0,0-2.16,2.13,2.15,2.15,0,1,0,4.3,0A2.12,2.12,0,0,0,58.25,19.43Zm-5.84-2.17,2.49,1.32,2.49-1.36c-.35-.15-.9-.21-1.19-.53-1-1-1.82-.63-2.74,0A11.45,11.45,0,0,1,52.41,17.26Z"/><path d="M32.32,23.71H21.61V13H32.32Zm-8.54-8.57v6.39h6.36V15.14Z"/><path d="M32.33,25.93V36.62H21.62V25.93Zm-8.56,8.53h6.38V28.11H23.77Z"/><path d="M44.23,51.76V44.58c0-1.3.71-1.75,1.86-1.17l14.53,7.25a1.25,1.25,0,0,1,.86,1.12c0,.58-.41.87-.88,1.11q-7.27,3.61-14.52,7.25c-1.11.55-1.84.11-1.85-1.13C44.22,56.59,44.23,54.17,44.23,51.76Zm2.16,5.81L58,51.77,46.39,46Z"/><path d="M8.65,15.11V13h6.46c0,.61,0,1.22,0,1.82a.49.49,0,0,1-.38.29C12.72,15.11,10.72,15.11,8.65,15.11Z"/><path d="M8.66,19.42V17.29h6.45c0,.61,0,1.22,0,1.84,0,.1-.21.28-.33.28C12.75,19.43,10.73,19.42,8.66,19.42Z"/><path d="M15.06,23.7H8.66V21.61h6.4Z"/><path d="M15.06,36.65H8.66V34.56h6.4Z"/><path d="M8.66,32.32V30.23h6.39v2.09Z"/><path d="M8.66,28V25.91h6.39V28Z"/><path d="M8.66,6.47V4.35h2.13c0,.61,0,1.19,0,1.76a.51.51,0,0,1-.33.35C9.87,6.49,9.29,6.47,8.66,6.47Z"/><path d="M17.3,4.34h2.09V6.42H17.3Z"/><path d="M15.08,4.36V6.43H13V4.36Z"/></g></g></svg>