<svg xmlns="http://www.w3.org/2000/svg" viewBox="0 0 63.5 64.51"><g id="Layer_2" data-name="Layer 2"><g id="Layer_1-2" data-name="Layer 1"><path d="M59.16,64.51h-2.1V53.81h-14V64.49H40.93c0-.22,0-.43,0-.65,0-3.56,0-7.13,0-10.69a2.66,2.66,0,0,1,.33-1.34A11.85,11.85,0,0,0,43.07,44a37.38,37.38,0,0,1,0-4.1.59.59,0,0,0-.46-.69,13.43,13.43,0,0,1-1.37-.54,5.82,5.82,0,0,1-3.47-4.33,2.39,2.39,0,0,0-.58-1.07c-.67-.73-1.28-1.67-2.13-2a6.6,6.6,0,0,0-3-.1A5.14,5.14,0,0,1,28,30a3.48,3.48,0,0,0-3.18-.89V26.94c.06,0,.1-.07.13-.06a3.94,3.94,0,0,0,3.3-1.13,4.31,4.31,0,0,1,3.48-1.05,3.3,3.3,0,0,0,.62,0,13.14,13.14,0,0,1,0-1.78,3.3,3.3,0,0,1,2.79-2.8Q42.29,19,49.46,17.86a9.5,9.5,0,0,1,2.59-.22,4.15,4.15,0,0,1,3.63,3.23c.37,1.27.73,2.54,1.1,3.84H60.1a3.23,3.23,0,1,1,0,6.46H57v.67q0,7.86,0,15.73a2.07,2.07,0,0,0,.27,1.08,12.74,12.74,0,0,1,1.91,8.11c-.17,2.5,0,5,0,7.53A1.69,1.69,0,0,1,59.16,64.51ZM54.84,47.28V31.21H49l1.25,1.32L48.76,34a2.44,2.44,0,0,1-.37-.32,16.8,16.8,0,0,0-6.48-4.63c-1.44-.62-2.8-1.4-4.22-2.08a1.55,1.55,0,0,0-1.95.37c-.4.58-.27,1.13.42,1.83,1.05,1.05,2.11,2.07,3.12,3.15a2,2,0,0,1,.52,1.1,3.75,3.75,0,0,0,2.45,3.33c.66.28,1.32.55,2,.79a1.31,1.31,0,0,1,1,1.42c0,1.77,0,3.54,0,5.31v3Zm-.31-22.61c-.33-1.13-.62-2.22-1-3.31A2.16,2.16,0,0,0,51,19.78l-15.12,2.4a2.08,2.08,0,0,0-.88.29,1.11,1.11,0,0,0-.46,1.35,1.26,1.26,0,0,0,1.34.89c3.19,0,6.37,0,9.55,0a1.28,1.28,0,0,0,.75-.33c.87-.83,1.71-1.69,2.48-2.46l1.69,1.51-1.45,1.25Zm-12,2.22,0,.11c1.29.65,2.58,1.3,3.89,1.93a1.72,1.72,0,0,0,.72.08H57V26.89Zm1.2,24.69H56.35c-.32-.65-.6-1.26-.93-1.84a.73.73,0,0,0-.53-.26q-4.85,0-9.68,0a.7.7,0,0,0-.53.26C44.34,50.32,44.07,50.92,43.74,51.58ZM33.44,26.87c-1.54.07-3.25-.44-4.44,1.07,1.21,1.51,2.89,1,4.44,1.07ZM59.23,29c.76,0,1.59.25,2-.6a1.38,1.38,0,0,0-.14-1.15c-.46-.64-1.18-.36-1.82-.37Z"/><path d="M8.89,32.08l4.58-4.6L15,29.13c-.34.3-.75.62-1.11,1-1.7,1.69-3.38,3.41-5.11,5.07a1.74,1.74,0,0,0-.59,1.54c.06.59.09,1.19.14,1.82l5.92-5.93,1.59,1.68L11.15,39c-.61.6-1.19,1.22-1.81,1.8a.72.72,0,0,0-.22.94c.23.51.41,1,.62,1.56l6.5-6.51,1.61,1.63-6.94,6.95L12.18,47l6.07-6.16,1.58,1.65-6.15,6,1.75,1.36,7.5-7.56,1.55,1.63L17.42,51c.7.27,1.33.55,2,.73.17.05.47-.18.65-.35L27,44.48c.22-.22.42-.46.66-.72l1.51,1.56-6.93,6.9.06.2c.87,0,1.75.1,2.62.08.2,0,.4-.26.57-.43q4.5-4.5,9-9a4.51,4.51,0,0,0,.45-.62l1.57,1.7-7.69,7.63a14.36,14.36,0,0,0,6.75-3.71,16.2,16.2,0,0,0,4.15-6.47l2,.65c-.72,5.18-7.75,11.19-14.2,12.18a18.28,18.28,0,1,1,4.2-34.78l-.81,1.88c-5.56-2.12-10.84-1.7-15.74,1.7C12,25.39,9.36,29.17,8.89,32.08Z"/><path d="M2.18,6.46V59.13H38.69v2.18H1.54C.31,61.31,0,61,0,59.75V5.8C0,4.57.31,4.26,1.55,4.26H51.19c1.23,0,1.55.31,1.55,1.54V15H50.6V6.46Z"/><path d="M18.85,13.89l.8-1.31a15.83,15.83,0,0,1,1.09-1.77,2.34,2.34,0,0,1,3.73,0,18.65,18.65,0,0,1,1.09,1.77c.22.37.46.74.78,1.26.3-.44.53-.73.72-1a19,19,0,0,1,1.17-2,2.34,2.34,0,0,1,3.81,0,15.9,15.9,0,0,1,1.08,1.78c.21.35.44.7.76,1.18.3-.42.52-.71.71-1a20.2,20.2,0,0,1,1.18-2,2.34,2.34,0,0,1,3.81,0,17.3,17.3,0,0,1,1,1.71l.78,1.26a11.09,11.09,0,0,0,.69-1c.4-.64.73-1.33,1.16-2a2.28,2.28,0,0,1,2-1v1.89a.51.51,0,0,1-.07.24c-.41.69-.84,1.37-1.25,2.06-1.37,2.34-3.54,2.33-4.9,0-.25-.45-.47-.92-.73-1.36-.14-.24-.33-.46-.58-.8-.27.37-.49.64-.66.93-.39.63-.69,1.32-1.13,1.9a2.35,2.35,0,0,1-4,0,22.44,22.44,0,0,1-1.16-2c-.15-.26-.35-.5-.61-.87-.28.4-.51.69-.7,1-.38.63-.69,1.31-1.13,1.9a2.35,2.35,0,0,1-3.9,0,19.73,19.73,0,0,1-1-1.73c-.21-.35-.44-.7-.76-1.19-.3.43-.52.72-.71,1a21,21,0,0,1-1.13,1.89,2.35,2.35,0,0,1-3.9,0,19.73,19.73,0,0,1-1-1.73c-.21-.35-.45-.7-.76-1.19-.3.43-.52.72-.71,1a22.26,22.26,0,0,1-1.18,1.94,2.32,2.32,0,0,1-3.8,0c-.49-.63-.74-1.46-1.26-2-.77-.87-.59-1.84-.59-2.87a2.12,2.12,0,0,1,1.86.89c.41.56.72,1.18,1.08,1.77.23.38.46.74.79,1.26.3-.44.52-.74.71-1a22.26,22.26,0,0,1,1.18-1.94,2.33,2.33,0,0,1,3.81,0,20,20,0,0,1,1.07,1.78C18.27,13,18.5,13.36,18.85,13.89Z"/><path d="M38.72,0V2.07H8.64V0Z"/><path d="M43,2.07H40.93V0H43Z"/></g></g></svg>