<svg xmlns="http://www.w3.org/2000/svg" viewBox="0 0 54.61 70.67"><g id="Layer_2" data-name="Layer 2"><g id="Layer_1-2" data-name="Layer 1"><path d="M45.4,43.23l4.78,11.36c1.22,2.9,2.43,5.81,3.67,8.7A2.29,2.29,0,0,1,51,66.57c-1.24-.36-2.49-.66-3.73-1a.79.79,0,0,0-.9.34c-.76,1.19-1.57,2.36-2.34,3.55a2.26,2.26,0,0,1-2.18,1.2,2.29,2.29,0,0,1-2-1.6q-3.69-8.73-7.42-17.46L32,50.75c-.33.45-.6.85-.89,1.22A19.51,19.51,0,0,1,29,54.45a2.7,2.7,0,0,1-3.42.11,12.65,12.65,0,0,1-2-2.2c-.39-.49-.73-1-1.16-1.63L19.76,57c-1.71,4-3.41,8.05-5.13,12.06a2.18,2.18,0,0,1-3,1.37,3.06,3.06,0,0,1-1.13-1C9.74,68.35,9,67.18,8.25,66a.78.78,0,0,0-1-.42c-1.22.37-2.46.65-3.68,1A2.35,2.35,0,0,1,.85,66a2.35,2.35,0,0,1-.22-2.67q4-9.54,8-19.1l.39-.95-.89-.12c-.55-.06-1.1-.1-1.66-.17a3.53,3.53,0,0,1-3-5c.42-1.08,1-2.12,1.4-3.19a2,2,0,0,0-.61-2.28c-.53-.42-1.1-.8-1.66-1.21s-.87-.62-1.28-1a3.6,3.6,0,0,1,.15-5.7c.9-.73,1.89-1.36,2.8-2.07a1.94,1.94,0,0,0,.62-2.22c-.36-.89-.79-1.74-1.15-2.62A10.35,10.35,0,0,1,3,15.52a2.68,2.68,0,0,1,2-3,37.6,37.6,0,0,1,4.14-.67,2.58,2.58,0,0,1,.29,0c1.58-.16,1.91-.5,2.09-2.07.14-1.25.21-2.52.46-3.76a3.15,3.15,0,0,1,4.17-2.43c1.18.39,2.29,1,3.44,1.45,1.6.67,1.89.59,2.94-.82.63-.84,1.22-1.71,1.87-2.54A5.88,5.88,0,0,1,25.73.44a2.78,2.78,0,0,1,3.38.3,18.43,18.43,0,0,1,1.78,2.05c.53.64,1,1.33,1.48,2a1.51,1.51,0,0,0,1.79.5c1-.41,1.93-.86,2.91-1.25a10.32,10.32,0,0,1,2.21-.7,2.65,2.65,0,0,1,2.9,1.73,18.87,18.87,0,0,1,.6,3.1c.12.79.19,1.6.3,2.4a1.33,1.33,0,0,0,1.13,1.13l3.66.43c3.26.38,4.3,2.11,3.07,5.13-.42,1-.92,2-1.34,3a1.94,1.94,0,0,0,.58,2.26c.47.38,1,.72,1.48,1.08s1.27.91,1.84,1.43a3.33,3.33,0,0,1-.13,5.07c-.76.65-1.6,1.21-2.41,1.8-1.9,1.36-1.94,1.58-1,3.73A26.26,26.26,0,0,1,51.29,39a2.92,2.92,0,0,1-1.93,3.59,20.8,20.8,0,0,1-2.62.46C46.33,43.15,45.92,43.17,45.4,43.23ZM14.79,5.4c-.21.3-.53.55-.58.86-.2,1.2-.34,2.42-.46,3.64a4.6,4.6,0,0,1-4.16,4.15c-1.05.1-2.1.18-3.13.34-1.28.19-1.47.52-1,1.71.37.93.81,1.83,1.22,2.75A4.92,4.92,0,0,1,5,24.78c-.68.49-1.37,1-2,1.48-1.43,1.08-1.43,1.49,0,2.56.7.53,1.42,1,2.13,1.54A4.82,4.82,0,0,1,6.74,36.1c-.23.54-.49,1-.73,1.58s-.38.85-.54,1.28a1.26,1.26,0,0,0,1,1.76c1,.14,2,.22,3,.32a4.74,4.74,0,0,1,4.27,4.21c.11,1,.19,2,.32,3a1.26,1.26,0,0,0,1.76,1c1-.4,2-.89,3-1.3a4.63,4.63,0,0,1,5.46,1.47c.37.48.71,1,1.07,1.48s.51.72.79,1.06c.93,1.14,1.32,1.14,2.24,0,.67-.85,1.26-1.75,1.91-2.6,1.59-2.06,2.81-2.4,5.22-1.46.62.25,1.21.54,1.81.81s1.08.5,1.64.69a1,1,0,0,0,1.38-.86c.19-1.15.29-2.33.42-3.49.28-2.56,1.17-3.55,3.69-4,1.32-.22,2.66-.29,4-.51a.89.89,0,0,0,.71-1.24c-.39-1-.86-2.07-1.31-3.1a4.88,4.88,0,0,1,1.61-5.94c.86-.62,1.74-1.23,2.55-1.91a1.1,1.1,0,0,0,0-1.74c-.92-.76-1.92-1.42-2.86-2.14a4.53,4.53,0,0,1-1.48-5.27c.28-.69.61-1.36.91-2,.2-.47.41-.94.57-1.42.29-.91.18-1.17-.75-1.33-1.15-.2-2.32-.31-3.49-.43-2.64-.26-3.72-1.25-4.11-3.82,0-.16,0-.34,0-.51-.14-1.13-.24-2.28-.44-3.41-.14-.79-.42-.92-1.2-.67a16.09,16.09,0,0,0-1.5.59C36.7,6.59,35.85,7,35,7.34a3.38,3.38,0,0,1-4.3-1.18c-.71-.87-1.33-1.82-2-2.72a1.69,1.69,0,0,0-2.83,0c-.69.92-1.34,1.86-2,2.76a3.39,3.39,0,0,1-4.12,1.17c-.94-.33-1.84-.79-2.76-1.17C16.25,6,15.62,5.72,14.79,5.4ZM52,64.54c-2.91-6.91-5.75-13.7-8.6-20.48a4.16,4.16,0,0,0-.42,1.45c-.2,1.35-.27,2.73-.6,4.05a2.87,2.87,0,0,1-3.63,2,33.72,33.72,0,0,1-3.2-1.26L34,49.74c2.69,6.33,5.29,12.45,8,18.69l2.47-3.7c1-1.53,1.63-1.76,3.39-1.29Zm-39.46,3.9,8-18.72c-.65.27-1.08.47-1.52.64-1.08.43-2.14,1-3.25,1.27a2.85,2.85,0,0,1-3.52-1.89,20,20,0,0,1-.49-2.8c-.14-.95-.24-1.91-.36-2.87h-.2Q6.85,54.23,2.58,64.37c.09.06.11.09.13.09l3.9-1C8.47,63,9,63.18,10.09,64.8Z"/><path d="M27.27,43.89A16.34,16.34,0,1,1,43.55,26.76,16.35,16.35,0,0,1,27.27,43.89Zm-.08-2.22A14.12,14.12,0,1,0,13.12,27.5,14.12,14.12,0,0,0,27.19,41.67Z"/><path d="M32.35,30c.43,1.33.85,2.6,1.26,3.88A2,2,0,0,1,33,36.26a1.91,1.91,0,0,1-2.43-.2l-3.29-2.38L24,36.05a1.93,1.93,0,0,1-3.09-2.21L22.12,30c-1.15-.83-2.3-1.66-3.42-2.51A1.9,1.9,0,0,1,19.84,24c1.2,0,2.4,0,3.59,0a.75.75,0,0,0,.87-.65c.32-1.1.69-2.18,1-3.27a1.93,1.93,0,0,1,3.79,0c.36,1.09.73,2.18,1.05,3.28a.74.74,0,0,0,.87.64c1.14,0,2.29,0,3.44,0a1.93,1.93,0,0,1,1.18,3.59C34.59,28.35,33.5,29.13,32.35,30ZM21,26.18l0,.17L23,27.85c1.5,1.09,1.64,1.53,1.08,3.28-.28.84-.54,1.69-.87,2.74.93-.67,1.68-1.21,2.42-1.76,1.8-1.31,2.19-.85,5,1.38l.39-.24c-.19-.88-.45-1.7-.71-2.52a2,2,0,0,1,.83-2.6l2.45-1.8a20.74,20.74,0,0,0-2.92-.16,2.56,2.56,0,0,1-2.42-1.75c-.3-.93-.62-1.86-1-3l-1,3a2,2,0,0,1-2.37,1.71Z"/></g></g></svg>