<svg xmlns="http://www.w3.org/2000/svg" viewBox="0 0 38.58 56.27"><defs><style>.cls-1{fill:#333;}</style></defs><g id="Layer_2" data-name="Layer 2"><g id="Layer_1-2" data-name="Layer 1"><path class="cls-1" d="M6.49,50.62,9,50c1-.24,1.24-.13,1.75.76L12.1,53l3-7c.5-1.17,1-2.33,1.51-3.5.31-.7.82-1,1.38-.72s.74.8.44,1.5C16.71,47.34,15,51.4,13.23,55.46a1,1,0,0,1-2,.09c-.57-1-1.17-2-1.72-3a.64.64,0,0,0-.85-.38c-1.16.32-2.33.61-3.52.83A1.34,1.34,0,0,1,4,52.67,1.51,1.51,0,0,1,4,51.45c1.3-3.12,2.64-6.23,4-9.34.82-1.9,1.63-3.8,2.43-5.67a14.8,14.8,0,0,1-1.48-1,4,4,0,0,1-1.24-2.45,1.59,1.59,0,0,0-.38-.74,4.5,4.5,0,0,0-2.39-1.48,3.88,3.88,0,0,1-2.56-5.15,2.21,2.21,0,0,0,.06-1.39,4,4,0,0,0-1.21-2.12,3.93,3.93,0,0,1,.25-5.8A2.41,2.41,0,0,0,2.19,15a4,4,0,0,0,0-2.43,4,4,0,0,1,3.4-5,1.81,1.81,0,0,0,.85-.43A4.2,4.2,0,0,0,7.86,4.93,3.88,3.88,0,0,1,13,2.31a2.21,2.21,0,0,0,1.39,0,4.06,4.06,0,0,0,2.12-1.2,4,4,0,0,1,5.9.32,2.45,2.45,0,0,0,1,.65A3.77,3.77,0,0,0,26,2.2a3.93,3.93,0,0,1,4.92,3.33,3.41,3.41,0,0,0,2.14,2.13,4.06,4.06,0,0,1,3.16,5.61,1.66,1.66,0,0,0,0,.83,4.65,4.65,0,0,0,.29,1.11,2.39,2.39,0,0,0,.59.9,4,4,0,0,1,.08,6.26,2.18,2.18,0,0,0-.72,1.19,3.94,3.94,0,0,0,0,2.38,3.93,3.93,0,0,1-3.2,4.95,3.38,3.38,0,0,0-2.27,2.24,4,4,0,0,1-2.27,3c-.13.06-.25.14-.42.23.82,1.92,1.63,3.82,2.45,5.72q2,4.62,3.94,9.22a1.22,1.22,0,0,1,0,1.37c-.36.45-.84.39-1.34.26-1.08-.27-2.18-.51-3.26-.81a.66.66,0,0,0-.91.37c-.52,1-1.09,1.91-1.63,2.87-.26.46-.52.9-1.13.87s-.83-.49-1-1q-3.48-8.15-7-16.27a1.45,1.45,0,0,0-.83-.88,1.87,1.87,0,0,1-.88-.61,3.52,3.52,0,0,0-2.52-1.35,2.55,2.55,0,0,0-.78,0c-.67.1-.94.57-1.19,1.15-1.77,4.21-3.58,8.4-5.38,12.6C6.67,50.13,6.6,50.32,6.49,50.62ZM6.31,9.78a1.72,1.72,0,0,0-2,.88,1.92,1.92,0,0,0,.09,2.16,1.35,1.35,0,0,1,.14,1.26c-.25.78-.4,1.6-.67,2.38a1.66,1.66,0,0,1-.65.92,2.11,2.11,0,0,0,0,3.85,1.4,1.4,0,0,1,.6.81,21.26,21.26,0,0,1,.67,2.58,1.66,1.66,0,0,1-.12,1.06A2.09,2.09,0,0,0,6.32,29a1.84,1.84,0,0,1,1,.45,16.81,16.81,0,0,1,1.79,1.79,1.82,1.82,0,0,1,.46,1,2.09,2.09,0,0,0,3.3,1.9,1.85,1.85,0,0,1,1.12-.1,19.71,19.71,0,0,1,2.51.66,1.72,1.72,0,0,1,.87.65c1,1.64,2.77,1.62,3.79-.05a1.69,1.69,0,0,1,.87-.62,18.22,18.22,0,0,1,2.44-.64,2,2,0,0,1,1.24.11A2.07,2.07,0,0,0,29,32.32a1.91,1.91,0,0,1,.47-1.09,16.81,16.81,0,0,1,1.78-1.8A1.82,1.82,0,0,1,32.29,29a2.09,2.09,0,0,0,1.91-3.26,1.9,1.9,0,0,1-.13-1.18,17.34,17.34,0,0,1,.65-2.45,1.78,1.78,0,0,1,.68-.91,2.09,2.09,0,0,0,0-3.78,2,2,0,0,1-.7-1c-.26-.75-.4-1.55-.64-2.32a1.41,1.41,0,0,1,.13-1.32,1.88,1.88,0,0,0,.08-2.15,2.11,2.11,0,0,0-1.9-1.05,2.07,2.07,0,0,1-1.15-.48,14.46,14.46,0,0,1-1.75-1.75A1.9,1.9,0,0,1,29,6.29,2.09,2.09,0,0,0,25.72,4.4a1.81,1.81,0,0,1-1.13.14,18.46,18.46,0,0,1-2.5-.67,1.84,1.84,0,0,1-.91-.69,2.08,2.08,0,0,0-3.77,0,1.8,1.8,0,0,1-.91.69,17.3,17.3,0,0,1-2.45.64,1.9,1.9,0,0,1-1.18-.13A2.08,2.08,0,0,0,9.61,6.3a1.94,1.94,0,0,1-.49,1.09A18.29,18.29,0,0,1,7.42,9.1,6.86,6.86,0,0,1,6.31,9.78Zm14,28.74L26.5,53l1.3-2.24c.53-.93.77-1,1.79-.78l2.51.59a6.54,6.54,0,0,0-.24-.64c-1.79-4.19-3.6-8.38-5.37-12.59-.26-.61-.55-1.08-1.23-1.17a2.74,2.74,0,0,0-1,0c-.52.13-1.18.2-1.49.55A5.5,5.5,0,0,1,20.27,38.52Z"/><path class="cls-1" d="M19.34,6.11A13.2,13.2,0,1,1,6.1,19.27,13.2,13.2,0,0,1,19.34,6.11Zm0,2A11.2,11.2,0,1,0,30.49,19.38,11.19,11.19,0,0,0,19.33,8.1Z"/><path class="cls-1" d="M17.82,20.51c1.75-1.47,3.42-2.86,5.1-4.25a2.94,2.94,0,0,1,.5-.37,1,1,0,0,1,1.24,1.45,3.11,3.11,0,0,1-.41.4l-5.6,4.66c-.73.61-1.12.59-1.8-.08L14.2,19.67c-.57-.58-.62-1.15-.15-1.6s1-.36,1.55.19Z"/></g></g></svg>