<svg xmlns="http://www.w3.org/2000/svg" viewBox="0 0 52.25 52.28"><defs><style>.cls-1{fill:#333;}</style></defs><g id="Layer_2" data-name="Layer 2"><g id="Layer_1-2" data-name="Layer 1"><path class="cls-1" d="M12.15,27.82c.06-1.05.09-2.1.17-3.15a.84.84,0,0,0-.38-.83A13.11,13.11,0,0,1,7.4,17.55,10.86,10.86,0,0,1,9.71,6.81a17.64,17.64,0,0,1,8.63-5.55,24.55,24.55,0,0,1,19,1.43,15.31,15.31,0,0,1,6.56,6,10.86,10.86,0,0,1-1.32,12.83,26.66,26.66,0,0,1-2.41,2.34.79.79,0,0,0-.3.71c.11,2.17.21,4.33.27,6.5a1.08,1.08,0,0,1-.37.88,1.19,1.19,0,0,1-1-.16c-1.93-1.33-3.84-2.7-5.74-4.08a.9.9,0,0,0-.82-.14,25.39,25.39,0,0,1-12.13,0,1.16,1.16,0,0,0-1.06.2c-1.87,1.36-3.76,2.7-5.64,4-.27.2-.53.42-.9.23a1,1,0,0,1-.47-1c0-1.1,0-2.2,0-3.3Zm26.46,1.87c-.1-1.94-.18-3.75-.3-5.57a1.34,1.34,0,0,1,.57-1.24,19.54,19.54,0,0,0,2.33-2.12A9.56,9.56,0,0,0,41.5,7.91a14.5,14.5,0,0,0-5-4,23.4,23.4,0,0,0-18.29-1A16.11,16.11,0,0,0,10.65,8,9.28,9.28,0,0,0,10,19.51a13.17,13.17,0,0,0,3.31,3.35,1.06,1.06,0,0,1,.52,1c-.09,1.41-.17,2.83-.24,4.24,0,.46,0,.92,0,1.43l.48-.31c1.47-1,3-2.07,4.41-3.13a1.47,1.47,0,0,1,1.33-.23,23.06,23.06,0,0,0,12,.11A2.31,2.31,0,0,1,34,26.4C35.45,27.51,37,28.55,38.61,29.69Z"/><path class="cls-1" d="M26.08,52.19H18.2c-.89,0-1.13-.24-1.13-1.11,0-1.29,0-2.59,0-3.88a5.24,5.24,0,0,1,4.66-5.08,76.69,76.69,0,0,1,8.71,0,5.13,5.13,0,0,1,4.62,5c0,1.36,0,2.73,0,4.09,0,.74-.28,1-1,1Zm7.44-1.57c0-1.22.08-2.41,0-3.59a3.69,3.69,0,0,0-3.67-3.37q-3.7,0-7.42,0a3.63,3.63,0,0,0-3.59,3,29.59,29.59,0,0,0,0,4Z"/><path class="cls-1" d="M45.31,52.28H39.53c-.8,0-1.09-.28-1.08-1.07a25.92,25.92,0,0,1,.1-2.93,4,4,0,0,1,3.9-3.47c1.94,0,3.89-.05,5.84,0a4.12,4.12,0,0,1,3.94,4c0,.84,0,1.68,0,2.52s-.28,1-1,1Zm5.27-1.66a14.75,14.75,0,0,0,0-2,2.51,2.51,0,0,0-2.49-2.2c-1.8,0-3.61,0-5.42,0a2.36,2.36,0,0,0-2.36,1.68A13,13,0,0,0,40,50.62Z"/><path class="cls-1" d="M6.87,52.28H1.14C.25,52.28,0,52,0,51.17s0-1.5,0-2.25A4.15,4.15,0,0,1,4.13,44.8q2.76,0,5.52,0a4.2,4.2,0,0,1,4.14,4.12c0,.8,0,1.61,0,2.41s-.32,1-1,1Zm5.19-1.66c0-.66,0-1.25,0-1.84a2.55,2.55,0,0,0-2.51-2.36c-1.81,0-3.61,0-5.42,0A2.58,2.58,0,0,0,1.56,48.9c0,.4,0,.81,0,1.21s.12.56.56.56c3.15,0,6.3,0,9.46,0Z"/><path class="cls-1" d="M26.14,40.86A4.9,4.9,0,0,1,21.23,36a5,5,0,0,1,4.92-4.93,4.89,4.89,0,0,1,0,9.78Zm0-8.13A3.25,3.25,0,0,0,22.86,36a3.27,3.27,0,1,0,3.24-3.24Z"/><path class="cls-1" d="M10.76,39.81a3.91,3.91,0,0,1-3.9,3.91,4,4,0,0,1-3.91-4,3.91,3.91,0,0,1,7.81.07ZM6.87,37.54a2.28,2.28,0,1,0-.06,4.55A2.34,2.34,0,0,0,9.14,39.8,2.26,2.26,0,0,0,6.87,37.54Z"/><path class="cls-1" d="M49.3,39.78a3.91,3.91,0,1,1-7.81.06,4,4,0,0,1,3.94-4A3.9,3.9,0,0,1,49.3,39.78Zm-3.88,2.31a2.3,2.3,0,0,0,2.27-2.28,2.33,2.33,0,0,0-2.3-2.27,2.26,2.26,0,0,0-2.28,2.3A2.3,2.3,0,0,0,45.42,42.09Z"/><path class="cls-1" d="M26.14,21.38c-.69,0-1.37,0-2.05,0a.8.8,0,0,1-.9-.82A7,7,0,0,0,22,17a6.68,6.68,0,0,1-1-2.62,5.4,5.4,0,0,1,2.55-5.22,5,5,0,0,1,5.5.21,5.48,5.48,0,0,1,1.61,6.94,9.7,9.7,0,0,0-1.44,3.35c0,.24-.05.48-.07.73-.05.7-.33,1-1,1S26.8,21.39,26.14,21.38Zm1.47-1.63a8.81,8.81,0,0,1,1.48-4,3.84,3.84,0,0,0,.61-2.29,3.67,3.67,0,0,0-3-3.48,3.48,3.48,0,0,0-3.87,2.43,4,4,0,0,0,.42,3.43,9.44,9.44,0,0,1,1.47,3.56.43.43,0,0,0,.33.29C25.86,19.76,26.7,19.75,27.61,19.75Z"/><path class="cls-1" d="M26.13,22.54c.39,0,.77,0,1.16,0a.8.8,0,0,1,.79.81.76.76,0,0,1-.76.78c-.8,0-1.61,0-2.41,0a.76.76,0,0,1-.74-.8.8.8,0,0,1,.76-.79c.4,0,.8,0,1.2,0Z"/><path class="cls-1" d="M26.94,5.6c0,.86-.25,1.27-.81,1.27s-.83-.4-.83-1.26a5.42,5.42,0,0,1,0-.57.77.77,0,0,1,.77-.77.82.82,0,0,1,.86.75A5.61,5.61,0,0,1,26.94,5.6Z"/><path class="cls-1" d="M18.35,14.56c-.21,0-.42,0-.62,0a.78.78,0,0,1-.66-.82.75.75,0,0,1,.71-.77,5.76,5.76,0,0,1,1.1,0,.82.82,0,0,1,.79.81.84.84,0,0,1-.79.82,4.69,4.69,0,0,1-.53,0Z"/><path class="cls-1" d="M33.88,14.54c-.86,0-1.31-.29-1.3-.86s.44-.78,1.32-.78a4.51,4.51,0,0,1,.52,0,.8.8,0,0,1,.76.79.82.82,0,0,1-.77.84A4.69,4.69,0,0,1,33.88,14.54Z"/><path class="cls-1" d="M32.74,20.07c-.09.12-.23.42-.46.53a.84.84,0,0,1-.76,0,4,4,0,0,1-1-1.09.84.84,0,0,1,.09-.76.94.94,0,0,1,.7-.33C31.78,18.38,32.73,19.46,32.74,20.07Z"/><path class="cls-1" d="M21.8,8.51c-.1.12-.24.43-.47.53A1,1,0,0,1,20.51,9a3.34,3.34,0,0,1-.86-1,.82.82,0,0,1,0-.76,1,1,0,0,1,.72-.41C20.82,6.77,21.8,7.88,21.8,8.51Z"/><path class="cls-1" d="M21.8,19c0,.64-.94,1.65-1.41,1.62a1,1,0,0,1-.73-.36.93.93,0,0,1,0-.8,3,3,0,0,1,.83-.93,1,1,0,0,1,.81-.09C21.55,18.59,21.7,18.91,21.8,19Z"/><path class="cls-1" d="M32,6.71c.22.18.52.31.63.54a.94.94,0,0,1,0,.77,4,4,0,0,1-.79.91.81.81,0,0,1-1.09,0,.71.71,0,0,1-.08-1A7.77,7.77,0,0,1,31.4,7,2.52,2.52,0,0,1,32,6.71Z"/></g></g></svg>