<svg xmlns="http://www.w3.org/2000/svg" viewBox="0 0 53.78 48.71"><defs><style>.cls-1{fill:#333;}</style></defs><g id="Layer_2" data-name="Layer 2"><g id="Layer_1-2" data-name="Layer 1"><path class="cls-1" d="M0,10.82c0-.1.08-.19.1-.29A4.39,4.39,0,0,1,4.46,7.06c1.73,0,3.47,0,5.2,0H26.3a4.64,4.64,0,0,1,.53,0,.83.83,0,0,1,.8.82.86.86,0,0,1-.82.85h-.53c-7.19,0-14.39,0-21.58,0a2.8,2.8,0,0,0-3,3.06c.07,1.34,0,2.68,0,4.09H24a.85.85,0,0,1,.82.8.94.94,0,0,1-.78,1,4.51,4.51,0,0,1-.52,0H1.68V44a2.59,2.59,0,0,0,2.85,2.87H43.44A2.64,2.64,0,0,0,46.31,44V28c0-.16,0-.32,0-.48a.81.81,0,0,1,.75-.85.87.87,0,0,1,.91.76,2.5,2.5,0,0,1,0,.47V44a4.41,4.41,0,0,1-4.71,4.69H5a9.32,9.32,0,0,1-1.29,0A4.26,4.26,0,0,1,.12,45.45c0-.13-.08-.26-.12-.39Z"/><path class="cls-1" d="M51.07,6.22a12.18,12.18,0,0,1-.59,1.38,4.23,4.23,0,0,1-.72,1,1.18,1.18,0,0,0-.2,1.58,1.08,1.08,0,0,0,.93.7,13.94,13.94,0,0,1,1.81.3A1.8,1.8,0,0,1,53.78,13V15a1.75,1.75,0,0,1-1.43,1.86c-.67.17-1.37.25-2.06.38a1.41,1.41,0,0,0-.75,1.88c.35.49.72,1,1.07,1.44a2.28,2.28,0,0,1-.53,3.24c-.34.24-.67.5-1,.75a2.12,2.12,0,0,1-2.67,0c-.48-.36-.95-.73-1.4-1.11a.71.71,0,0,0-.8-.11,1.48,1.48,0,0,0-1.15,1.57,8.89,8.89,0,0,1-.2,1.24A2.22,2.22,0,0,1,40.77,28c-.5,0-1,0-1.52,0a2.17,2.17,0,0,1-2.08-1.75c-.13-.6-.21-1.21-.3-1.81a1.29,1.29,0,0,0-1.95-.83c-.45.33-.89.68-1.34,1a2.24,2.24,0,0,1-2.89-.2c-.35-.33-.68-.66-1-1a2.25,2.25,0,0,1-.22-2.93c.33-.48.68-.94,1-1.39a.64.64,0,0,0,.07-.85,1.38,1.38,0,0,1-.19-.43.78.78,0,0,0-.75-.61c-.56-.05-1.11-.17-1.66-.26a2.18,2.18,0,0,1-1.92-2.21c0-.51,0-1,0-1.52a2.13,2.13,0,0,1,1.72-2c.6-.13,1.2-.22,1.81-.31a1.34,1.34,0,0,0,.84-2l-.91-1.22a2.26,2.26,0,0,1,.11-3,12.76,12.76,0,0,1,1-1,2.15,2.15,0,0,1,2.75-.12c.51.38,1,.8,1.5,1.15a.93.93,0,0,0,.64.08,1.59,1.59,0,0,0,1.34-1.77A4,4,0,0,1,37,2.12,2.43,2.43,0,0,1,39.54,0h1.15a2.23,2.23,0,0,1,2.16,1.86c.11.62.21,1.24.31,1.86A1.34,1.34,0,0,0,45,4.47c.5-.36,1-.74,1.48-1.09a2,2,0,0,1,2.49,0A10.41,10.41,0,0,1,50.58,5,4.73,4.73,0,0,1,51.07,6.22ZM49.24,22c-.11-.19-.18-.34-.28-.48-.38-.52-.79-1-1.16-1.56a3.16,3.16,0,0,1,1.39-4.25,2,2,0,0,1,.35-.08l.88-.16C52,15.2,52,15.2,51.92,13.6c0-.35-.11-.55-.49-.6-.54-.07-1.07-.21-1.61-.27a2.19,2.19,0,0,1-2-1.61,3.48,3.48,0,0,0-.21-.48,2.34,2.34,0,0,1,.23-2.57c.34-.47.68-.93,1-1.39a.55.55,0,0,0,0-.83c-.27-.28-.55-.55-.82-.82a.52.52,0,0,0-.82,0c-.47.39-.95.76-1.44,1.14a1.94,1.94,0,0,1-1.73.38A11.14,11.14,0,0,1,42.73,6a2.15,2.15,0,0,1-1.36-1.61c-.09-.35-.13-.72-.2-1.08-.3-1.68.07-1.47-1.81-1.48-.38,0-.53.18-.57.53-.07.57-.15,1.14-.22,1.72a2.06,2.06,0,0,1-1.38,1.76,4.86,4.86,0,0,0-.63.25,2.2,2.2,0,0,1-2.51-.2c-.51-.37-1-.75-1.51-1.14a.46.46,0,0,0-.72,0c-.28.3-.56.58-.86.86a.53.53,0,0,0-.06.82c.34.42.66.86,1,1.29A3.29,3.29,0,0,1,31,12.19a2.32,2.32,0,0,1-.59.22c-.54.11-1.1.2-1.65.29-.8.13-.81.13-.81,1,0,1.63-.13,1.37,1.3,1.53a3.11,3.11,0,0,1,3,2.27A2.43,2.43,0,0,1,32,19.78c-.32.46-.67.9-1,1.35-.53.71-.53.73.09,1.35,1.07,1.05.84,1.09,2,.11a3.1,3.1,0,0,1,4-.48,2.54,2.54,0,0,1,1.32,1.59c.09.38.14.76.2,1.14.3,1.63,0,1.44,1.74,1.46.45,0,.62-.19.67-.61s.15-1,.23-1.55a3.19,3.19,0,0,1,3.65-2.41,3,3,0,0,1,.85.38c.29.17.54.4.81.59,1.34,1,1,1,2.2-.16C49,22.39,49.08,22.21,49.24,22Z"/><path class="cls-1" d="M14.55,20.34h5.88a2.62,2.62,0,0,1,2.85,2.84q0,3.4,0,6.83a2.64,2.64,0,0,1-2.85,2.84H8.66A2.65,2.65,0,0,1,5.79,30V23.26a2.64,2.64,0,0,1,2.93-2.91Zm0,10.75c2,0,4,0,5.93,0,.75,0,1.05-.3,1.06-1.05V23.12c0-.76-.35-1.09-1.09-1.09-3.94,0-7.87,0-11.81,0-.79,0-1.06.28-1.06,1.08V30c0,.83.28,1.11,1.1,1.11Z"/><path class="cls-1" d="M24.06,37.07h17.8a.76.76,0,0,1,.79.69.79.79,0,0,1-.59.93,2.21,2.21,0,0,1-.63.05H6.62c-.81,0-1.22-.28-1.24-.82s.44-.86,1.24-.86Z"/><path class="cls-1" d="M24.06,42.61h17.8a.77.77,0,0,1,.8.74.84.84,0,0,1-.71.9,2.27,2.27,0,0,1-.52,0H6.62c-.81,0-1.23-.28-1.24-.81s.44-.87,1.25-.87Z"/><path class="cls-1" d="M35.13,33.19h-6.3c-.7,0-1.1-.31-1.1-.83s.44-.85,1.12-.85H41.6c.68,0,1.06.3,1.07.82s-.4.86-1.08.86Z"/><path class="cls-1" d="M6.61,13.19c-.31,0-.63,0-.94,0a.82.82,0,0,1-.79-.82.85.85,0,0,1,.8-.82c.64,0,1.29,0,1.93,0a.76.76,0,0,1,.78.77.79.79,0,0,1-.73.86,9.17,9.17,0,0,1-1,0Z"/><path class="cls-1" d="M10.77,11.53c.33,0,.67,0,1,0a.74.74,0,0,1,.73.75.73.73,0,0,1-.65.86,14.69,14.69,0,0,1-2.2,0A.71.71,0,0,1,9,12.33a.78.78,0,0,1,.72-.78,7.21,7.21,0,0,1,1,0Z"/><path class="cls-1" d="M14.89,13.19a8.18,8.18,0,0,1-1,0,.8.8,0,0,1-.78-.82.83.83,0,0,1,.8-.82c.64,0,1.29,0,1.93,0a.76.76,0,0,1,.77.77.8.8,0,0,1-.73.87l-.16,0h-.84Z"/><path class="cls-1" d="M29,27.64H28.6a.85.85,0,0,1-.87-.8.9.9,0,0,1,.82-.87,5.9,5.9,0,0,1,.94,0,.86.86,0,0,1,.84.83.9.9,0,0,1-.89.84Z"/><path class="cls-1" d="M45.61,14a5.63,5.63,0,0,1-11.25-.06A5.63,5.63,0,1,1,45.61,14Zm-9.48,0A3.87,3.87,0,1,0,40,10.09,3.88,3.88,0,0,0,36.13,14Z"/></g></g></svg>