<?xml version="1.0" encoding="utf-8"?>
<!-- Generator: Adobe Illustrator 27.8.1, SVG Export Plug-In . SVG Version: 6.00 Build 0)  -->
<svg version="1.1" id="Layer_1" xmlns="http://www.w3.org/2000/svg" xmlns:xlink="http://www.w3.org/1999/xlink" x="0px" y="0px"
	 viewBox="0 0 75 75" style="enable-background:new 0 0 75 75;" xml:space="preserve">
<g>
	<path d="M15.33,24.1c-2.54,0-4.98,0-7.41,0c-1.23,0-1.86-0.42-1.87-1.26c-0.02-0.86,0.63-1.31,1.9-1.31c2.31,0,4.63-0.01,6.94,0
		c0.55,0,1.09,0.06,1.52,0.08c1.43-1.79,2.71-3.68,4.26-5.3c7.01-7.31,15.62-10.68,25.71-9.74c14.1,1.32,25.12,11.48,27.83,25.34
		c3.2,16.36-7.61,32.83-23.94,36.25c-11.07,2.32-20.75-0.53-28.9-8.4c-0.33-0.32-0.63-0.85-0.61-1.27c0.02-0.37,0.45-0.82,0.81-1.04
		c0.51-0.32,0.98,0.01,1.42,0.37c1.64,1.36,3.2,2.86,4.97,4.02c17.03,11.11,40.28,0.94,43.75-19.09
		c2.7-15.56-7.23-30.09-22.72-33.26c-12.14-2.48-24.97,3.56-30.77,14.53c-0.74,1.4-1.33,2.87-2,4.3c-0.44,0.92-1.13,1.24-1.85,0.87
		c-0.69-0.35-0.87-1.08-0.45-1.96c0.36-0.77,0.74-1.54,1.1-2.31C15.12,24.69,15.2,24.43,15.33,24.1z"/>
	<path d="M42.2,27.26c0-3.34,0-6.69,0-10.03c0-0.58,0.07-1.11,0.62-1.44c0.72-0.43,1.67-0.05,1.85,0.77
		c0.07,0.31,0.06,0.65,0.06,0.98c0,6.26,0.01,12.52-0.01,18.78c0,0.56,0.18,0.91,0.61,1.26c2.59,2.07,5.16,4.17,7.74,6.26
		c0.2,0.16,0.4,0.31,0.57,0.49c0.48,0.51,0.51,1.2,0.09,1.71c-0.41,0.49-1.14,0.61-1.7,0.22c-0.51-0.36-0.99-0.78-1.47-1.17
		c-2.48-2.01-4.95-4.03-7.45-6.02c-0.65-0.52-0.93-1.09-0.92-1.93C42.22,33.85,42.2,30.56,42.2,27.26z"/>
	<path d="M12.14,37.94c-0.47,0-0.92,0-1.37,0c-3.07,0-6.14,0-9.21,0c-0.32,0-0.66-0.01-0.97-0.1c-0.6-0.19-0.9-0.66-0.86-1.27
		c0.05-0.61,0.4-1.03,1.02-1.14c0.27-0.05,0.55-0.04,0.83-0.04c7.57,0,15.14,0,22.71,0c1.26,0,1.85,0.39,1.86,1.24
		c0.02,0.88-0.6,1.31-1.89,1.31c-2.87,0-5.73,0-8.6,0c-0.27,0-0.54,0-0.94,0c0.09,1.18,0.15,2.27,0.27,3.36
		c0.11,1-0.25,1.63-1.06,1.77c-0.77,0.13-1.34-0.39-1.46-1.42C12.33,40.46,12.25,39.25,12.14,37.94z"/>
	<path d="M23.53,51.59c-2.26,0-4.53,0-6.79,0c-1,0-1.53-0.45-1.52-1.26c0-0.8,0.55-1.28,1.53-1.28c4.55-0.01,9.1-0.01,13.66,0
		c0.95,0,1.55,0.52,1.55,1.29c0,0.77-0.59,1.26-1.55,1.26C28.1,51.6,25.82,51.59,23.53,51.59z"/>
	<path d="M8.07,51.59c-0.38,0-0.75,0.02-1.13,0c-0.69-0.04-1.16-0.47-1.22-1.1c-0.07-0.67,0.31-1.31,1-1.37
		c0.94-0.08,1.91-0.08,2.85,0.01c0.65,0.06,1.04,0.7,0.98,1.32c-0.06,0.63-0.53,1.1-1.19,1.14C8.92,51.61,8.49,51.59,8.07,51.59z"/>
	<path d="M67.03,38.96c-0.8-0.01-1.38-0.55-1.37-1.28c0.01-0.75,0.63-1.28,1.47-1.25c0.79,0.03,1.36,0.59,1.33,1.32
		C68.43,38.47,67.84,38.97,67.03,38.96z"/>
	<path d="M42.2,60.47c0.01-0.82,0.53-1.37,1.29-1.36c0.75,0.01,1.25,0.58,1.24,1.4c-0.01,0.83-0.53,1.37-1.29,1.35
		C42.68,61.87,42.19,61.31,42.2,60.47z"/>
</g>
</svg>
