<?xml version="1.0" encoding="utf-8"?>
<!-- Generator: Adobe Illustrator 27.8.1, SVG Export Plug-In . SVG Version: 6.00 Build 0)  -->
<svg version="1.1" id="Layer_1" xmlns="http://www.w3.org/2000/svg" xmlns:xlink="http://www.w3.org/1999/xlink" x="0px" y="0px"
	 viewBox="0 0 61 61" style="enable-background:new 0 0 61 61;" xml:space="preserve">
<g>
	<path d="M2.56,2.58c0,18.53,0,37.01,0,55.55c14.3,0,28.59,0,42.97,0c0-1.13,0-2.25,0-3.38c0-1.05,0.48-1.64,1.3-1.62
		c0.78,0.02,1.23,0.6,1.23,1.61c0,1.48,0.01,2.95,0,4.43c-0.01,1.09-0.45,1.55-1.53,1.55c-14.99,0-29.98,0-44.97,0
		C0.39,60.71,0,60.26,0,58.95C0,41.56,0,24.17,0,6.78c0-1.71,0-3.43,0-5.14C0.01,0.44,0.43,0,1.6,0c10.75,0,21.5-0.01,32.24,0.02
		c0.47,0,1.05,0.24,1.38,0.57c4.11,4.05,8.19,8.13,12.24,12.24c0.33,0.33,0.52,0.91,0.56,1.39c0.09,0.89,0.04,1.79,0.02,2.68
		c-0.01,0.87-0.51,1.42-1.25,1.43c-0.74,0.01-1.39-0.57-1.24-1.4c0.34-1.97-0.63-3.2-1.95-4.46c-3.23-3.1-6.35-6.32-9.53-9.47
		c-0.23-0.23-0.61-0.46-0.92-0.46C23.04,2.53,12.92,2.53,2.81,2.54C2.75,2.54,2.7,2.55,2.56,2.58z"/>
	<path d="M48.82,47.07c0.89,0.88,1.8,1.76,2.69,2.65c2.78,2.77,5.55,5.55,8.32,8.33c0.19,0.19,0.39,0.36,0.54,0.58
		c0.39,0.57,0.37,1.16-0.13,1.65c-0.5,0.48-1.09,0.48-1.65,0.08c-0.21-0.15-0.38-0.36-0.57-0.54c-3.65-3.65-7.29-7.31-10.98-11
		c-4.67,3.78-9.91,5.16-15.76,3.81c-4.29-1-7.73-3.37-10.3-6.96c-5.18-7.22-4.13-17.16,2.44-23.28c6.4-5.97,16.39-6.21,23.23-0.67
		C53.55,27.32,55.87,38.7,48.82,47.07z M50.58,35.47c-0.01-8.48-6.78-15.22-15.28-15.23c-8.3,0-15.09,6.88-15.07,15.28
		c0.02,8.27,6.84,15.07,15.12,15.07C43.75,50.6,50.6,43.8,50.58,35.47z"/>
	<path d="M33.63,39.47c2.36-2.38,4.53-4.57,6.7-6.75c0.8-0.8,1.6-1.6,2.4-2.4c0.74-0.73,1.51-0.82,2.06-0.24
		c0.55,0.57,0.47,1.28-0.26,2c-3.22,3.22-6.44,6.44-9.66,9.66c-0.06,0.06-0.11,0.11-0.17,0.17c-0.68,0.62-1.3,0.65-1.94,0.01
		c-2.21-2.18-4.4-4.38-6.59-6.59c-0.57-0.57-0.58-1.33-0.1-1.83c0.52-0.55,1.27-0.54,1.89,0.07c1.7,1.68,3.39,3.38,5.08,5.08
		C33.24,38.85,33.38,39.12,33.63,39.47z"/>
</g>
</svg>
