<?xml version="1.0" encoding="utf-8"?>
<!-- Generator: Adobe Illustrator 27.8.1, SVG Export Plug-In . SVG Version: 6.00 Build 0)  -->
<svg version="1.1" id="Layer_1" xmlns="http://www.w3.org/2000/svg" xmlns:xlink="http://www.w3.org/1999/xlink" x="0px" y="0px"
	 viewBox="0 0 63.92 63.92" style="enable-background:new 0 0 63.92 63.92;" xml:space="preserve">
<g>
	<path d="M31.26,63.27c-2.19-1.6-4.37-3.2-6.58-4.78c-0.18-0.13-0.5-0.13-0.75-0.11c-2.46,0.25-4.91,0.52-7.36,0.77
		c-0.65,0.07-1.03-0.26-1.28-0.83c-0.98-2.22-1.95-4.44-2.97-6.64c-0.14-0.3-0.44-0.6-0.74-0.73c-2.15-0.99-4.31-1.93-6.47-2.89
		c-0.93-0.42-1.06-0.66-0.95-1.67c0.26-2.41,0.52-4.83,0.75-7.24c0.02-0.23-0.09-0.52-0.23-0.72c-1.4-1.96-2.82-3.9-4.23-5.85
		c-0.59-0.82-0.59-1.05,0-1.87c1.4-1.93,2.81-3.86,4.19-5.81c0.18-0.25,0.28-0.64,0.25-0.95c-0.23-2.46-0.51-4.91-0.77-7.37
		c-0.07-0.65,0.25-1.03,0.83-1.29c2.22-0.97,4.44-1.96,6.64-2.97c0.3-0.14,0.6-0.44,0.74-0.74c0.99-2.15,1.93-4.31,2.89-6.47
		c0.41-0.93,0.67-1.06,1.67-0.95c2.41,0.26,4.83,0.52,7.24,0.75c0.25,0.02,0.55-0.11,0.77-0.27c1.94-1.39,3.87-2.8,5.8-4.2
		c0.82-0.59,1.06-0.59,1.87,0c1.93,1.4,3.86,2.81,5.81,4.19c0.25,0.18,0.64,0.28,0.95,0.25c2.46-0.23,4.91-0.51,7.37-0.77
		c0.65-0.07,1.04,0.24,1.29,0.82c0.98,2.22,1.95,4.44,2.97,6.64c0.14,0.3,0.43,0.6,0.73,0.74c2.17,1,4.35,1.95,6.53,2.92
		c0.88,0.39,1.01,0.67,0.91,1.64c-0.26,2.41-0.52,4.83-0.76,7.24c-0.02,0.19,0.02,0.43,0.12,0.57c1.58,2.2,3.18,4.39,4.78,6.58
		c0,0.25,0,0.49,0,0.74c-1.6,2.19-3.2,4.38-4.78,6.57c-0.11,0.15-0.14,0.38-0.12,0.57c0.24,2.42,0.49,4.83,0.76,7.24
		c0.11,0.97-0.03,1.25-0.9,1.64c-2.18,0.97-4.36,1.92-6.53,2.92c-0.3,0.14-0.6,0.44-0.74,0.74c-1.01,2.2-1.99,4.42-2.97,6.64
		c-0.25,0.58-0.64,0.89-1.29,0.82c-2.47-0.26-4.95-0.53-7.42-0.78c-0.23-0.02-0.52-0.01-0.69,0.12c-2.2,1.58-4.39,3.18-6.57,4.78
		C31.76,63.27,31.51,63.27,31.26,63.27z M17.55,6.27c-0.49-0.24-0.69,0.13-0.9,0.62c-0.87,2.02-1.79,4.02-2.67,6.03
		c-0.22,0.51-0.55,0.83-1.06,1.05c-2.09,0.91-4.17,1.86-6.26,2.77c-0.33,0.15-0.45,0.3-0.4,0.69c0.25,2.21,0.43,4.42,0.7,6.63
		c0.08,0.69-0.06,1.23-0.47,1.77c-1.31,1.77-2.58,3.57-3.89,5.34c-0.25,0.34-0.27,0.56-0.01,0.91c1.36,1.83,2.71,3.68,4.01,5.55
		c0.24,0.34,0.4,0.84,0.36,1.24c-0.19,2.28-0.43,4.55-0.7,6.81c-0.06,0.52,0.1,0.71,0.54,0.9c2.04,0.88,4.05,1.81,6.09,2.69
		c0.53,0.23,0.86,0.57,1.09,1.09c0.9,2.07,1.83,4.13,2.75,6.2c0.12,0.27,0.19,0.49,0.6,0.44c2.29-0.26,4.58-0.46,6.87-0.73
		c0.55-0.06,1,0.04,1.44,0.36c1.82,1.34,3.67,2.65,5.49,4c0.36,0.26,0.59,0.28,0.96,0.01c1.82-1.35,3.65-2.68,5.5-3.98
		c0.34-0.24,0.84-0.42,1.24-0.38c2.32,0.19,4.63,0.44,6.94,0.71c0.45,0.05,0.61-0.1,0.77-0.47c0.9-2.05,1.83-4.09,2.72-6.15
		c0.24-0.55,0.59-0.89,1.14-1.13c2.07-0.9,4.13-1.84,6.2-2.75c0.33-0.15,0.44-0.3,0.4-0.69c-0.25-2.21-0.44-4.42-0.71-6.63
		c-0.08-0.69,0.06-1.23,0.47-1.77c1.31-1.77,2.58-3.57,3.89-5.34c0.25-0.34,0.26-0.56,0.01-0.91c-1.36-1.84-2.7-3.68-4.01-5.55
		c-0.23-0.33-0.4-0.8-0.37-1.18c0.2-2.32,0.44-4.63,0.71-6.94c0.06-0.49-0.12-0.64-0.5-0.81c-2.05-0.9-4.09-1.83-6.15-2.72
		c-0.53-0.23-0.86-0.57-1.09-1.1c-0.9-2.07-1.83-4.13-2.75-6.2c-0.12-0.27-0.19-0.49-0.6-0.44c-2.27,0.26-4.54,0.46-6.81,0.73
		C38.49,7.05,38,6.92,37.5,6.55c-1.79-1.32-3.6-2.61-5.39-3.93c-0.35-0.26-0.59-0.29-0.96-0.01c-1.82,1.35-3.64,2.69-5.5,3.98
		C25.3,6.84,24.78,7,24.36,6.97C22.13,6.78,19.9,6.52,17.55,6.27z"/>
	<path d="M25.59,36.72c0.19-0.25,0.33-0.46,0.5-0.63c5.21-5.22,10.42-10.43,15.63-15.64c0.91-0.91,1.29-0.91,2.2,0
		c0.77,0.77,1.55,1.54,2.31,2.32c0.65,0.66,0.66,1.16,0.01,1.81c-6.61,6.61-13.22,13.23-19.83,19.83c-0.65,0.65-1.17,0.66-1.81,0.01
		c-2.77-2.76-5.54-5.53-8.3-8.3c-0.65-0.65-0.65-1.16,0-1.81c0.81-0.82,1.63-1.63,2.45-2.44c0.73-0.72,1.22-0.73,1.94-0.01
		c1.45,1.44,2.89,2.88,4.33,4.32C25.17,36.33,25.32,36.47,25.59,36.72z M19.8,33.82c-0.51,0.5-0.97,0.95-1.38,1.35
		c2.4,2.4,4.77,4.78,7.12,7.14c6.19-6.19,12.42-12.42,18.57-18.57c-0.42-0.47-0.87-0.96-1.34-1.49c-0.17,0.18-0.31,0.35-0.47,0.51
		c-5.19,5.2-10.39,10.4-15.59,15.59c-0.12,0.12-0.23,0.24-0.35,0.35c-0.58,0.53-1.11,0.54-1.68-0.01c-0.67-0.64-1.32-1.3-1.97-1.96
		C21.73,35.76,20.76,34.79,19.8,33.82z"/>
</g>
</svg>
