<svg xmlns="http://www.w3.org/2000/svg" viewBox="0 0 65.65 65.64"><defs><style>.cls-1{fill:#00496a;}</style></defs><g id="Layer_2" data-name="Layer 2"><g id="Layer_1-2" data-name="Layer 1"><path class="cls-1" d="M37.17,0c.77.75.76,1.22-.08,2L35.64,3.2a.52.52,0,0,0-.09.16c1,.16,2,.3,3,.49a29.38,29.38,0,0,1,23,23c.11.57.21,1.14.29,1.71a1,1,0,0,1-.76,1.21c-.52.1-1-.26-1.11-.9a46.32,46.32,0,0,0-1.4-5.39c-3.84-9.86-11-15.82-21.37-17.85-.56-.11-1.13-.17-1.69-.25l-.16.19c.57.51,1.15,1,1.69,1.54a.93.93,0,0,1,0,1.46.88.88,0,0,1-1.32,0c-1.24-1.21-2.47-2.43-3.67-3.67-.45-.46-.36-1,.24-1.49,1.21-1,2.44-2.07,3.66-3.11L36.27,0Z"/><path class="cls-1" d="M0,28.9c.64-1.09,1.23-1.14,2.06-.19L3.42,30.3c.24-1.39.41-2.7.69-4A29.5,29.5,0,0,1,27.47,3.75a3.12,3.12,0,0,1,.44,0,1,1,0,0,1,.33,2c-.91.23-1.85.37-2.74.64C14.84,9.57,8.33,16.69,5.89,27.57c-.19.89-.29,1.8-.43,2.71l.2.13c.52-.55,1-1.13,1.55-1.66a.94.94,0,0,1,1.47,0,.89.89,0,0,1,0,1.32q-1.77,1.82-3.58,3.59a.89.89,0,0,1-1.36,0C2.46,32.17,1.24,30.72,0,29.28Z"/><path class="cls-1" d="M32.78,9.76a23.12,23.12,0,1,1-23,23.15A23.12,23.12,0,0,1,32.78,9.76Zm0,44.23A21.12,21.12,0,1,0,11.74,32.9,21.08,21.08,0,0,0,32.82,54Z"/><path class="cls-1" d="M30.28,60.27c-.52-.46-1.05-.92-1.56-1.41s-.63-1.1-.19-1.56,1-.39,1.57.16q1.62,1.6,3.21,3.22a1,1,0,0,1,0,1.59c-1.4,1.09-2.83,2.14-4.26,3.18a1,1,0,0,1-1.38-.21,1,1,0,0,1,.28-1.42c.6-.46,1.22-.89,1.93-1.4-1.22-.22-2.31-.36-3.38-.63Q8.47,57.13,4,39a14.09,14.09,0,0,1-.27-1.58,1,1,0,0,1,.87-1.18,1,1,0,0,1,1.09.86,45.06,45.06,0,0,0,1.41,5.31Q13,57.26,28.66,60.24c.48.1,1,.15,1.45.21Z"/><path class="cls-1" d="M60.11,35.6l-1.43,1.45c-.59.59-1.16.65-1.61.19s-.38-1,.19-1.56c1.09-1.09,2.17-2.19,3.27-3.27.62-.61,1.09-.6,1.68.06,1,1.15,2,2.32,3,3.48a1.6,1.6,0,0,1,.23.3,1.07,1.07,0,0,1-.13,1.36A1,1,0,0,1,64,37.43c-.57-.6-1.11-1.22-1.73-1.9-.18,1.1-.32,2.11-.51,3.11A29.67,29.67,0,0,1,38.71,62c-.53.11-1.05.2-1.58.28a1.06,1.06,0,0,1-1.32-.8,1.18,1.18,0,0,1,1-1.17A39.94,39.94,0,0,0,42.11,59c9.62-3.71,15.51-10.68,17.74-20.75.19-.86.28-1.73.41-2.59Z"/><path class="cls-1" d="M33.82,24.73c0,1.24,0,2.48,0,3.72a.82.82,0,0,0,.59.89,4,4,0,0,1,2.26,4.16,3.82,3.82,0,0,1-3.17,3.26,5.94,5.94,0,0,1-2.23-.29.7.7,0,0,0-.82.16c-1.65,1.62-3.3,3.23-5,4.81a1.56,1.56,0,0,1-1,.45,1.06,1.06,0,0,1-.78-.61A1.34,1.34,0,0,1,24,40.21c.77-.86,1.62-1.64,2.44-2.45l2.66-2.6a.64.64,0,0,0,.2-.82,3.82,3.82,0,0,1,2-5,.87.87,0,0,0,.58-1c0-2.48,0-5,0-7.44,0-.55.12-1,.75-1.17a1,1,0,0,1,1.25,1.05C33.83,22.12,33.82,23.43,33.82,24.73Zm-2.9,8.09a2,2,0,0,0,1.83,2,1.94,1.94,0,0,0,2-1.81,2,2,0,0,0-1.88-2A1.88,1.88,0,0,0,30.92,32.82Z"/><path class="cls-1" d="M49.64,42c0,1-.77,1.47-1.44,1.13s-1.56-.88-2.31-1.36a1,1,0,0,1-.31-1.39A1,1,0,0,1,47,40.08c.73.41,1.45.82,2.14,1.28A2.56,2.56,0,0,1,49.64,42Z"/><path class="cls-1" d="M33.81,15.76c0,.45,0,.9,0,1.34a1,1,0,0,1-2,0,25.16,25.16,0,0,1,0-2.88.84.84,0,0,1,1-.8.88.88,0,0,1,1,.82,14.4,14.4,0,0,1,0,1.47Z"/><path class="cls-1" d="M41.08,20.26c-.91,0-1.47-.78-1.13-1.43a24.47,24.47,0,0,1,1.39-2.37,1,1,0,0,1,1.34-.29A1,1,0,0,1,43,17.56c-.4.72-.81,1.45-1.27,2.14A2.85,2.85,0,0,1,41.08,20.26Z"/><path class="cls-1" d="M20.23,24.64a1.05,1.05,0,0,1-1.48,1.07c-.79-.41-1.56-.88-2.31-1.36a1,1,0,0,1,1.06-1.72,25.33,25.33,0,0,1,2.19,1.31A2.45,2.45,0,0,1,20.23,24.64Z"/><path class="cls-1" d="M49.92,33.88c-.45,0-.9,0-1.34,0a.9.9,0,0,1-.93-.94.92.92,0,0,1,.9-1c.91,0,1.83,0,2.75,0a.87.87,0,0,1,.88,1,.91.91,0,0,1-.92,1C50.81,33.9,50.37,33.88,49.92,33.88Z"/><path class="cls-1" d="M25.88,46.38a6.63,6.63,0,0,1-.3.76c-.38.66-.76,1.33-1.17,2a1,1,0,1,1-1.73-1.07c.4-.7.8-1.41,1.24-2.08a.85.85,0,0,1,1.16-.39A4.33,4.33,0,0,1,25.88,46.38Z"/><path class="cls-1" d="M31.81,50c0-.42,0-.85,0-1.28a.92.92,0,0,1,1-1,1,1,0,0,1,1,.94c0,.89,0,1.79,0,2.69a.9.9,0,0,1-1,.92,1,1,0,0,1-1-1V50Z"/><path class="cls-1" d="M15.7,31.88c.45,0,.89,0,1.34,0a.91.91,0,0,1,.94.93,1,1,0,0,1-.9,1,26.35,26.35,0,0,1-2.81,0,.87.87,0,0,1-.83-1,.88.88,0,0,1,.86-.93,13.06,13.06,0,0,1,1.4,0Z"/><path class="cls-1" d="M43.44,48.78a5.38,5.38,0,0,1-.78.8.76.76,0,0,1-1.08-.24c-.54-.84-1-1.7-1.51-2.59a.83.83,0,0,1,.39-1.1c.42-.27.93-.33,1.21.09.6.87,1.09,1.82,1.62,2.74a.54.54,0,0,1,0,.19Z"/><path class="cls-1" d="M46.06,25.6c-.18-.17-.6-.39-.65-.67a1.33,1.33,0,0,1,.31-1.13,17.21,17.21,0,0,1,2.52-1.49.81.81,0,0,1,1.08.43A.85.85,0,0,1,49.18,24c-.84.57-1.74,1.06-2.62,1.57A2.48,2.48,0,0,1,46.06,25.6Z"/><path class="cls-1" d="M20.35,41.3a1.81,1.81,0,0,1-.46.61,25.51,25.51,0,0,1-2.31,1.37.91.91,0,0,1-1.3-.41.94.94,0,0,1,.35-1.33c.71-.44,1.42-.87,2.15-1.27A1.05,1.05,0,0,1,20.35,41.3Z"/><path class="cls-1" d="M25.63,19.47c-.23.27-.41.63-.71.79a.93.93,0,0,1-1.24-.36,25.26,25.26,0,0,1-1.38-2.37,1,1,0,0,1,1.57-1.09c.59.88,1.09,1.82,1.62,2.74a.4.4,0,0,1,0,.19Z"/></g></g></svg>