<svg xmlns="http://www.w3.org/2000/svg" viewBox="0 0 65.54 63.06"><defs><style>.cls-1{fill:#00496a;}</style></defs><g id="Layer_2" data-name="Layer 2"><g id="Layer_1-2" data-name="Layer 1"><path class="cls-1" d="M0,6.43a1.27,1.27,0,0,1,1.47-.92c1.23,0,2.47,0,3.78,0,0-1.39,0-2.72,0-4.06,0-.23-.07-.53,0-.69A2.9,2.9,0,0,1,6.1.05c.14-.09.38,0,.57,0H45.39V35.4c0,.8.24,1.08,3,1.61,4.55.85,6.7,5,4.79,9.21-.47,1.05-.4,1-.32,1.44a1.35,1.35,0,0,0,1.49-.38,24,24,0,0,1,2.08-2.08,2,2,0,0,1,1.11-.5c1.88-.05,3.76,0,5.64,0a1,1,0,0,1,1.11.59A1.08,1.08,0,0,1,64,46.49c-.35.35-.67.74-1.11,1.23.62,0,1.1,0,1.58,0,.7,0,1.11.4,1.1,1s-.4.92-1.13.93l-1.34,0s0,0-.15.09c.34.38.67.75,1,1.1a1.12,1.12,0,0,1,.38,1.27c-.21.51-.66.59-1.17.59-2,0-3.93,0-5.89,0a.85.85,0,0,1-.41-.15,22.48,22.48,0,0,1-2.42-2.36,1.36,1.36,0,0,0-1.51-.46c-.11.65-.2,1.32-.34,2a14.39,14.39,0,0,1-27.35,2.55c-7.92,0-15.84,0-23.75,0-.74,0-1.24-.2-1.47-.92ZM28.55,7.49H2V52.27H24.53a13.4,13.4,0,0,1-.26-5.83,19.94,19.94,0,0,0,.31-4.07V27.63c0-1,.29-1.27,1.25-1.28,1.48,0,3,0,4.42,0,1,0,1.28.32,1.28,1.33v8.37a15,15,0,0,1,6.73-1.82v-17H29.79c-.93,0-1.24-.31-1.24-1.23V7.49ZM7.2,5.52H29.68a.59.59,0,0,1,.4.16q5,5,9.93,10a.71.71,0,0,1,.22.53c0,5.79,0,11.58,0,17.38v.69l3.2.77V2H7.2ZM50.87,49.64c-.93,0-1.82,0-2.72,0-.41,0-.53.13-.6.53-1.11,6.67-9,10.48-15.44,5.18a6.65,6.65,0,0,1-1.87-2.57c-2.2-5.34-.58-9.85,4.58-12.61a7.23,7.23,0,0,1,5-.67c4.58,1,7.08,3.78,7.78,7.72,0,.18.22.47.35.48,1,0,2,0,2.92,0,.45-5.39-5.45-11.19-11.67-11.54a12.49,12.49,0,1,0-.54,25A12.34,12.34,0,0,0,50.87,49.64Zm-5.25,0c-.87,0-1.7,0-2.52,0-.63,0-.88.17-1.14,1.08a2.43,2.43,0,0,1-1.65,1.7c-4.05,1.21-6.65-2.19-5.56-5.14a4,4,0,0,1,7.45-.09c.08.2.27.5.43.51,1,0,2,0,3,0a7.08,7.08,0,0,0-7-6.31c-5.24,0-9.06,5.16-6.6,10.79a5.86,5.86,0,0,0,3.16,3C41.21,57.68,45.42,53.12,45.62,49.64Zm-19-21.34V40.37c1-1,2-2.11,3.05-3.1,0-2.79,0-5.59,0-8.38,0-.19,0-.37,0-.59Zm4-19.13V15.3h6.29Zm25,39.52,2,1.91c.07.07.17.16.25.16h3.33a.83.83,0,0,0-.1-.2l-.9-1c-.6-.65-.61-1.07,0-1.72l1.13-1.24c-1.21,0-2.27,0-3.33,0a.62.62,0,0,0-.38.2C56.91,47.4,56.3,48,55.58,48.69Zm-15.35-1a2,2,0,0,0-2.29-1,2.12,2.12,0,0,0-1.52,2,2.08,2.08,0,0,0,1.61,2,1.85,1.85,0,0,0,2.16-1c-.78-.11-2,.28-1.92-1S39.43,47.8,40.23,47.69Z"/><path class="cls-1" d="M14.6,41.48V33.3c1.89,0,3.78,0,5.67,0,1.46,0,1.41.68,1.09,3.23a41.64,41.64,0,0,0,.09,10.87c.25,1.84.06,2.4-1.27,2.36a37.55,37.55,0,0,0-4,0c-1.2.08-1.61-.2-1.61-1.22Zm2-6.23V47.78h3V35.25Z"/><path class="cls-1" d="M11.56,45.15c0,1.53,0,3.06,0,4.59q-3.45,0-6.92,0,0-4.59,0-9.18c2.31,0,4.61,0,6.92,0C11.58,42.09,11.56,43.62,11.56,45.15Zm-5-2.66V47.8h3V42.49Z"/><path class="cls-1" d="M12.83,18.88c-2.61,0-5.21,0-7.81,0a1.53,1.53,0,0,1-1-.42A.9.9,0,0,1,4.54,17a2.64,2.64,0,0,1,.63,0H20.85a1,1,0,0,1,1,1,1,1,0,0,1-1.08.94C18.16,18.89,15.49,18.88,12.83,18.88Z"/><path class="cls-1" d="M12.81,23.67H5.2c-.26,0-.59,0-.75-.08s-.62-.6-.61-.91.37-.64.66-.86.5-.07.75-.07H20.42c1,0,1.5.33,1.48,1s-.49.93-1.48.93Z"/><path class="cls-1" d="M7.52,12.19h2.56c.7,0,1.11.38,1.09,1,0,.83-.85,1.24-2.13.7a3.85,3.85,0,0,0-3.17,0c-1.2.58-2.08.12-2.09-.69,0-.58.42-1,1.11-1Z"/></g></g></svg>