<svg xmlns="http://www.w3.org/2000/svg" viewBox="0 0 65.63 65.62"><defs><style>.cls-1{fill:#00496a;}</style></defs><g id="Layer_2" data-name="Layer 2"><g id="Layer_1-2" data-name="Layer 1"><path class="cls-1" d="M2.69,65.62A3.26,3.26,0,0,1,.14,63.45,3.06,3.06,0,0,1,.5,60.87,1.81,1.81,0,0,0,.76,60a31,31,0,0,1,.49-7.13A19.09,19.09,0,0,1,4,46.76a2.24,2.24,0,0,0,.34-1.16c0-.87-.1-1.75-.12-2.62a3.88,3.88,0,0,1,4.07-4.13c3.25,0,6.5,0,9.74,0a1.16,1.16,0,0,0,1.33-1.14c.07-.94.05-1.88,0-2.82a.58.58,0,0,0-.25-.4,10.87,10.87,0,0,1-4.77-7.65.71.71,0,0,0-.06-.19H13.2a3.08,3.08,0,0,1-3.16-3c0-1.26,0-2.52,0-3.78a2.9,2.9,0,0,1,1.36-2.48.82.82,0,0,0,.4-.78,40.46,40.46,0,0,1,.11-5.05A9,9,0,0,1,21,3.63c3.29,0,6.58,0,9.87,0a4.14,4.14,0,0,1,4.39,3.85.67.67,0,0,0,.46.42,4.16,4.16,0,0,1,3.93,4.27c0,1.45,0,2.9,0,4.35a.89.89,0,0,0,.42.85,3,3,0,0,1,1.32,2.56c0,2.39,0,4.78,0,7.18a3.75,3.75,0,0,1-3.81,3.83,3.07,3.07,0,0,0-3,1.49,9.8,9.8,0,0,1-2.11,1.94.9.9,0,0,0-.42.84c0,.72,0,1.45,0,2.18a1.3,1.3,0,0,0,1.5,1.45h9.36c2.87,0,4.51,1.78,4.31,4.65-.06.78-.11,1.57-.12,2.36a1.37,1.37,0,0,0,.24.76A17.53,17.53,0,0,1,50.68,57c0,.7,0,1.41,0,2.11a4.42,4.42,0,0,0,.45,2.2,2.94,2.94,0,0,1-2,4.19l-.34.14Zm26.68-6.1h.74c4.52,0,9,0,13.58,0,.61,0,.77-.19.8-.79.24-5.1.52-10.19.81-15.29.1-1.91-.59-2.7-2.49-2.7-11.38,0-22.77,0-34.15,0-1.47,0-2.66.72-2.52,2.59.22,2.87.34,5.75.49,8.63,0,.76-.28,1.21-.88,1.25s-1-.34-1-1.11-.1-1.54-.16-2.5a17.54,17.54,0,0,0-1.83,9.86H5.09c0-.92-.09-1.77-.11-2.62a1,1,0,0,1,.87-1.07,1,1,0,0,1,1,.93c0,.32,0,.64,0,1,0,.61.08,1.22.12,1.81h15a2.27,2.27,0,0,0-.12-.55,17.94,17.94,0,0,0-1.53-2.62,6.88,6.88,0,0,1,1.69-10.12,1.48,1.48,0,0,1,2.43,1.31c0,1,0,2,0,2.94,0,1.86-.21,1.55,1.6,1.61.62,0,.77-.24.76-.8,0-1.28,0-2.57,0-3.85A1.45,1.45,0,0,1,29.2,46.1a6.82,6.82,0,0,1,1.67,10.35A6.09,6.09,0,0,0,29.37,59.52ZM34.85,28c.66-2.1.31-4.17.42-6.21-1.91-.49-2.22-.9-2.22-2.88,0-1,0-2,0-3a2.34,2.34,0,0,0-2.52-2.45,7.86,7.86,0,0,0-1.26.2c-.75.14-1.5.34-2.26.44a13.18,13.18,0,0,1-5.18-.53,2.49,2.49,0,0,0-3.4,2.61c.07,1.13,0,2.26,0,3.4a2.09,2.09,0,0,1-1.5,2.07c-.22.06-.45.08-.8.15a41.25,41.25,0,0,0,.25,5.11,9.44,9.44,0,0,0,11.25,7.54,9.29,9.29,0,0,0,4-1.89c-.57,0-1,0-1.45-.09a2.61,2.61,0,0,1,.27-5.2c.71,0,1.41,0,2.12,0A2.93,2.93,0,0,1,34.85,28ZM16.51,19.85V19c0-1.15,0-2.3,0-3.46a4.19,4.19,0,0,1,2.86-3.8,6.55,6.55,0,0,1,3.46,0,19.39,19.39,0,0,0,3.79.36,18.06,18.06,0,0,0,2.95-.57A4.38,4.38,0,0,1,35,15.91c0,1,0,2,0,2.95v1A21,21,0,0,0,37.24,19a1.14,1.14,0,0,0,.49-.87c0-2,.05-4.06,0-6.09a2.17,2.17,0,0,0-2.21-2.19,2.1,2.1,0,0,1-2.18-2.13A2.19,2.19,0,0,0,31,5.55c-3.35,0-6.71,0-10.06,0A7,7,0,0,0,13.8,11.9a54.62,54.62,0,0,0-.07,6.4.88.88,0,0,0,.37.63C14.85,19.26,15.63,19.52,16.51,19.85Zm9.26,43.81q11.18,0,22.36,0c.9,0,1.4-.41,1.39-1.13s-.5-1.08-1.38-1.08c-1.13,0-2.26,0-3.4,0q-20.66,0-41.32,0c-1,0-1.49.38-1.49,1.09s.53,1.12,1.48,1.12c.13,0,.26,0,.39,0ZM22.64,48.2c-.25.21-.36.3-.46.4A4.84,4.84,0,0,0,21.93,55,8.91,8.91,0,0,1,24,59.15c0,.14.22.35.34.35,1,0,2,0,3.06,0A9,9,0,0,1,29.54,55a4.82,4.82,0,0,0-.27-6.43,4.34,4.34,0,0,0-.44-.34c0,1.19,0,2.28,0,3.36A2.3,2.3,0,0,1,26.48,54H25.33c-1.85,0-2.69-.85-2.69-2.71C22.63,50.28,22.64,49.33,22.64,48.2Zm7.43-12.28a31.41,31.41,0,0,1-4.36.58,32,32,0,0,1-4.32-.59l-.2,2.89h9.08ZM46.36,59.49h2.36c.18-3.38,0-6.66-1.84-9.65ZM37.18,24.72H38c1.07,0,1.46-.4,1.46-1.48s0-2,0-3.07c0-.2,0-.39,0-.42-.67.42-1.32.82-2,1.25-.13.09-.3.25-.31.39C37.17,22.47,37.18,23.56,37.18,24.72Zm-22.92,0c0-1.16,0-2.26,0-3.37,0-.13-.25-.27-.41-.39-.53-.41-1.06-.8-1.6-1.2A1.61,1.61,0,0,0,12,19.6c0,1.39,0,2.69,0,4a1.1,1.1,0,0,0,1,1.11C13.4,24.74,13.8,24.71,14.26,24.71ZM36.62,29c2,.31,3.14-.77,2.81-2.46l-2.29.15Zm-4.83.17c-.41,0-.81,0-1.22,0s-.74.26-.67.67c.05.26.37.65.6.67a18.07,18.07,0,0,0,2.55,0,.59.59,0,0,0,.61-.73A1.07,1.07,0,0,0,33,29.2,4.79,4.79,0,0,0,31.79,29.17Z"/><path class="cls-1" d="M65.63,6c-.35.39-.71.76-1.31.52s-.63-.74-.62-1.28,0-.94,0-1.41a1.85,1.85,0,0,0-1.78-1.89H46.16c-1.63,0-2.3.68-2.3,2.3v7.24a1.91,1.91,0,0,0,2,2.23,2.62,2.62,0,0,1,2.4,2.69c0,1.14,0,2.28.14,3.46L50.16,17c.37-.6.74-1.2,1.09-1.81a2.74,2.74,0,0,1,2.58-1.47h7.69c1.5,0,2.18-.69,2.19-2.2,0-.34,0-.68,0-1,0-.56.08-1.06.67-1.25a1,1,0,0,1,1.26.62v2.69c-.06.16-.13.31-.18.47a3.76,3.76,0,0,1-3.58,2.61q-3.94,0-7.88,0a1.18,1.18,0,0,0-1.18.67c-1.11,1.9-2.26,3.78-3.38,5.66a1.64,1.64,0,0,1-1.56.93,1.53,1.53,0,0,1-1.48-1.61c0-1.54,0-3.08,0-4.62,0-.8-.16-1-1-1A3.73,3.73,0,0,1,42,11.92c0-2.74-.05-5.47,0-8.2A3.71,3.71,0,0,1,45.69,0C51.09,0,56.5,0,61.9,0a3.71,3.71,0,0,1,3.58,2.7c0,.11.1.22.15.33Z"/><path class="cls-1" d="M53.8,11.19H47.53a1.32,1.32,0,0,1-.84-.19,1.31,1.31,0,0,1-.38-.93c0-.26.37-.53.62-.71a1.17,1.17,0,0,1,.63-.08H60a2.54,2.54,0,0,1,.39,0,.92.92,0,0,1,.93,1,.9.9,0,0,1-1,.9c-1.35,0-2.69,0-4,0Z"/><path class="cls-1" d="M56.18,6.67h-4c-.76,0-1.19-.36-1.19-1s.43-1,1.17-1h7.93c.76,0,1.18.35,1.18,1s-.39,1-1.16,1Z"/><path class="cls-1" d="M47.68,6.66a5.42,5.42,0,0,1-.57,0,.87.87,0,0,1-.83-.82.82.82,0,0,1,.67-1,5.09,5.09,0,0,1,1.51,0,.84.84,0,0,1,.72,1,.88.88,0,0,1-.86.86c-.21,0-.42,0-.64,0Z"/></g></g></svg>