<?xml version="1.0" encoding="utf-8"?>
<!-- Generator: Adobe Illustrator 28.0.0, SVG Export Plug-In . SVG Version: 6.00 Build 0)  -->
<svg version="1.1" id="Layer_1" xmlns="http://www.w3.org/2000/svg" xmlns:xlink="http://www.w3.org/1999/xlink" x="0px" y="0px"
	 viewBox="0 0 216 35" style="enable-background:new 0 0 216 35;" xml:space="preserve">
<style type="text/css">
	.st0{fill:#020202;}
	.st1{display:none;}
	.st2{display:inline;}
</style>
<g>
	<g>
		<path class="st0" d="M139.6,0.7H135l-15.8,26.6h4.4l3.3-5.8h20.6l3.5,5.8h4.3L139.6,0.7z M128.6,18.4l8.7-14.6l8.3,14.6H128.6z"/>
		<polygon class="st0" points="188.5,24 188.5,27.5 157.7,27.5 157.7,24.7 157.7,24.7 158.3,24.1 182.1,3.9 158.7,3.9 158.7,0.7 
			188,0.7 188,3.7 163.7,24 		"/>
	</g>
	<polygon class="st0" points="36.7,27.3 32.4,27.3 20.8,3.8 16.7,3.8 10.6,16 6.3,16 13.8,0.7 23.6,0.7 	"/>
	<polygon class="st0" points="21.4,23.3 7,23.3 5,27.3 0.7,27.3 4.2,20.2 19.9,20.2 	"/>
	<polygon class="st0" points="116.6,0.7 116.6,27.3 113,27.3 113,4.6 96.1,34.1 96.1,34.7 95.6,34.2 95.8,34 95.8,34 95.5,34.1 
		78.6,4.6 78.6,27.3 75,27.3 75,0.7 80.6,0.7 95.8,27.5 111,0.7 	"/>
	<g>
		<rect x="191.5" y="12.5" class="st0" width="23.6" height="3.2"/>
		<rect x="191.5" y="24.1" class="st0" width="23.6" height="3.4"/>
		<rect x="191.5" y="0.7" class="st0" width="23.6" height="3.3"/>
	</g>
	<path class="st0" d="M71.2,7.9c-0.5-2.3-1.5-4.1-3-5.2c-1.7-1.3-4.1-1.9-7.2-1.9H39.5v7.4l0,0v19.1h22.4c3.7,0,6.3-1.2,7.9-3.4
		c1.3-1.9,1.9-4.8,1.9-8.6C71.7,11.9,71.5,9.5,71.2,7.9z M66.6,21.6c-1.1,1.6-3.4,2.5-6.8,2.5H43.3V8.8l0,0V4.1h17.3
		c3.2,0,5.2,0.9,6.2,2.8c0.7,1.2,1,3.6,1,7.2C67.8,17.8,67.4,20.3,66.6,21.6z"/>
</g>
<g class="st1">
	<g class="st2">
		<path d="M135.1,1h4.3l15.2,26H151l-3.5-5.8h-20.9l-3.3,5.8h-3.7L135.1,1z M146.1,18.7l-8.8-15.5l-9.2,15.5H146.1z"/>
		<path d="M158,24.4l24.9-20.8H159V1h28.8v2.6L163,24.3h25.3v2.8H158V24.4L158,24.4z"/>
	</g>
	<polygon class="st2" points="10.4,15.8 16.5,3.5 21,3.5 32.6,27 36.3,27 23.4,1 23.2,1 19.8,1 17.7,1 14,1 14,1 6.8,15.8 	"/>
	<polygon class="st2" points="4.4,20.5 1.2,27 4.9,27 6.8,23 21,23 19.8,20.5 8.1,20.5 	"/>
	<polygon class="st2" points="114.6,1 113.3,1 111.2,1 95.8,28.1 95.8,28.1 95.8,28.1 80.4,1 78.3,1 77,1 75.3,1 75.3,27 78.3,27 
		78.3,3.4 95.8,34 95.8,34 95.8,34 95.8,34 95.8,34 113.3,3.5 113.3,27 116.3,27 116.3,1 	"/>
	<g class="st2">
		<rect x="191.8" y="12.8" width="23" height="2.6"/>
		<rect x="191.8" y="24.4" width="23" height="2.8"/>
		<rect x="191.8" y="1" width="23" height="2.7"/>
	</g>
	<path class="st2" d="M70.9,8c-0.5-2.3-1.5-4-2.8-5c-1.6-1.2-3.9-1.9-7-1.9H39.8v2.7H43h2.2h15.4c3.2,0,5.4,1,6.5,2.9
		c0.7,1.3,1,3.7,1,7.3c0,3.9-0.4,6.4-1.2,7.7c-1.1,1.8-3.5,2.6-7,2.6H43V8.5h-3.2V27h22.1c3.6,0,6.2-1.1,7.6-3.3
		c1.2-1.8,1.8-4.6,1.8-8.4C71.4,12,71.2,9.6,70.9,8z"/>
	<rect x="39.8" y="3.8" class="st2" width="3.2" height="4.8"/>
</g>
</svg>
